{"glyphs":{"0":{"ha":767,"x_min":68,"x_max":699,"o":"m 576 316 l 576 657 q 570 701 576 680 l 267 163 q 384 124 319 124 q 519 180 463 124 q 576 316 576 237 m 192 657 l 192 316 q 194 286 192 300 l 493 815 q 384 849 444 849 q 248 793 304 849 q 192 657 192 736 m 699 657 l 699 316 q 607 93 699 185 q 384 0 514 0 q 161 93 253 0 q 68 316 68 185 l 68 657 q 161 880 68 788 q 384 973 253 973 q 607 880 514 973 q 699 657 699 788 "},"1":{"ha":348,"x_min":68,"x_max":280,"o":"m 68 911 q 86 955 68 937 q 130 973 104 973 l 218 973 q 262 955 244 973 q 280 911 280 937 l 280 62 q 262 18 280 36 q 218 0 244 0 q 174 18 193 0 q 156 62 156 36 l 156 849 l 130 849 q 86 867 104 849 q 68 911 68 886 "},"2":{"ha":791,"x_min":68,"x_max":723,"o":"m 356 201 l 339 184 q 279 124 308 153 l 661 124 q 705 106 687 124 q 723 62 723 87 q 705 18 723 36 q 661 0 687 0 l 127 0 q 92 13 108 1 q 82 24 86 18 q 69 52 72 36 q 68 61 68 56 q 77 93 68 78 q 84 103 80 98 q 87 106 85 104 q 119 138 101 120 q 252 272 183 203 l 269 288 q 385 405 346 366 q 411 431 394 414 q 502 525 473 493 q 561 627 551 580 q 545 745 574 689 q 481 816 523 788 q 391 848 439 844 q 299 833 342 853 q 228 771 256 812 q 194 684 200 731 q 171 642 191 658 q 125 629 151 627 q 83 653 100 633 q 71 699 68 673 q 126 842 81 777 q 245 944 173 909 q 404 972 320 980 q 549 919 482 964 q 655 802 618 873 q 682 602 705 707 q 593 442 665 522 q 499 344 563 408 q 473 317 481 326 q 356 201 433 278 "},"3":{"ha":755,"x_min":68,"x_max":687,"o":"m 359 124 l 413 124 q 519 168 475 124 q 563 274 563 212 q 519 380 563 336 q 413 425 475 425 l 359 425 q 316 443 334 425 q 298 486 298 461 q 316 530 298 512 q 359 549 334 549 l 413 549 q 519 593 475 549 q 563 699 563 637 q 519 805 563 761 q 413 849 475 849 l 359 849 q 351 850 355 849 q 342 849 347 849 q 236 805 280 849 q 192 699 192 761 q 174 655 192 673 q 130 637 155 637 q 86 655 104 637 q 68 699 68 673 q 149 892 68 812 q 342 973 229 973 q 351 972 347 973 q 359 973 355 973 l 413 973 q 607 892 526 973 q 687 699 687 812 q 586 486 687 569 q 687 274 687 404 q 607 81 687 161 q 413 0 526 0 l 359 0 q 351 1 355 0 q 342 0 347 0 q 149 81 229 0 q 68 274 68 161 q 86 318 68 300 q 130 336 104 336 q 174 318 155 336 q 192 274 192 300 q 236 168 192 212 q 342 124 280 124 q 351 123 347 124 q 359 124 355 124 "},"4":{"ha":741,"x_min":68,"x_max":673,"o":"m 612 283 l 496 283 l 496 62 q 479 18 496 36 q 435 0 460 0 q 391 18 409 0 q 373 62 373 36 l 373 283 l 134 283 q 86 305 105 283 q 73 357 68 328 l 179 922 q 205 962 184 948 q 252 972 227 977 q 291 946 277 967 q 301 900 306 925 l 209 407 l 373 407 l 373 469 q 391 513 373 494 q 435 531 409 531 q 479 513 460 531 q 496 469 496 494 l 496 407 l 612 407 q 655 389 637 407 q 673 345 673 371 q 655 301 673 319 q 612 283 637 283 "},"5":{"ha":684,"x_min":68,"x_max":616,"o":"m 616 292 q 531 85 616 171 q 324 0 445 0 l 130 0 q 86 18 104 0 q 68 62 68 36 q 86 106 68 87 q 130 124 104 124 l 324 124 q 443 173 394 124 q 492 292 492 222 q 443 411 492 361 q 324 460 394 460 l 130 460 q 86 478 104 460 q 68 522 68 496 l 68 911 q 86 955 68 937 q 130 973 104 973 l 520 973 q 564 955 546 973 q 583 911 583 937 q 564 867 583 886 q 520 849 546 849 l 192 849 l 192 584 l 324 584 q 531 498 445 584 q 616 292 616 412 "},"6":{"ha":720,"x_min":68,"x_max":652,"o":"m 192 292 q 241 173 192 222 q 359 124 290 124 q 479 173 429 124 q 528 292 528 222 q 479 411 528 361 q 359 460 429 460 q 241 411 290 460 q 192 292 192 361 m 652 292 q 566 85 652 171 q 359 0 480 0 q 153 85 239 0 q 68 292 68 171 l 68 681 q 153 888 68 802 q 359 973 239 973 q 566 888 480 973 q 652 681 652 802 q 633 637 652 656 q 590 619 615 619 q 546 637 564 619 q 528 681 528 656 q 479 800 528 751 q 359 849 429 849 q 241 800 290 849 q 192 681 192 751 l 192 530 q 359 584 267 584 q 566 498 480 584 q 652 292 652 412 "},"7":{"ha":744,"x_min":68,"x_max":676,"o":"m 130 973 l 608 973 q 658 947 639 973 q 666 892 676 922 l 383 42 q 324 0 369 0 q 304 3 315 0 q 269 35 281 12 q 266 81 258 57 l 522 849 l 130 849 q 86 867 104 849 q 68 911 68 886 q 86 955 68 937 q 130 973 104 973 "},"8":{"ha":759,"x_min":68,"x_max":691,"o":"m 347 549 l 412 549 q 516 590 473 549 q 562 692 559 632 q 521 802 565 755 q 410 849 475 849 l 349 849 q 238 802 283 849 q 197 692 194 755 q 243 590 199 632 q 347 549 286 549 m 562 268 q 521 377 565 331 q 410 425 475 425 l 349 425 q 238 377 283 425 q 197 268 194 331 q 243 165 199 207 q 347 124 286 124 l 412 124 q 516 165 473 124 q 562 268 559 207 m 157 77 q 73 262 77 153 q 149 463 68 378 q 174 486 161 475 q 157 501 165 493 q 73 687 77 577 q 149 888 68 803 q 349 973 231 973 l 410 973 q 610 888 528 973 q 686 687 691 803 q 602 501 682 577 q 585 486 594 493 q 610 463 598 475 q 686 262 691 378 q 602 77 682 153 q 412 0 522 0 l 347 0 q 157 77 237 0 "},"9":{"ha":720,"x_min":68,"x_max":652,"o":"m 359 513 q 479 562 429 513 q 528 681 528 612 q 479 800 528 751 q 359 849 429 849 q 241 800 290 849 q 192 681 192 751 q 241 562 192 612 q 359 513 290 513 m 528 62 l 528 443 q 359 389 452 389 q 153 475 239 389 q 68 681 68 560 q 153 888 68 802 q 359 973 239 973 q 566 888 480 973 q 652 681 652 802 l 652 62 q 633 18 652 36 q 590 0 615 0 q 546 18 564 0 q 528 62 528 36 "},"\u0000":{"ha":0,"x_min":0,"x_max":0,"o":""}," ":{"ha":345,"x_min":0,"x_max":0,"o":""},"!":{"ha":260,"x_min":68,"x_max":192,"o":"m 130 124 q 174 106 155 124 q 192 62 192 87 q 174 18 192 37 q 130 0 155 0 q 86 18 104 0 q 68 62 68 37 q 86 106 68 87 q 130 124 104 124 m 130 973 q 174 955 155 973 q 192 911 192 937 l 192 221 q 174 178 192 195 q 130 159 155 159 q 86 178 104 159 q 68 221 68 195 l 68 911 q 86 955 68 937 q 130 973 104 973 "},"\"":{"ha":348,"x_min":68,"x_max":280,"o":"m 156 926 l 156 854 q 143 823 156 836 q 112 810 130 810 q 81 823 94 810 q 68 854 68 836 l 68 926 q 81 957 68 944 q 112 970 94 970 q 143 957 130 970 q 156 926 156 944 m 192 854 l 192 926 q 205 957 192 944 q 236 970 218 970 q 267 957 254 970 q 280 926 280 944 l 280 854 q 267 823 280 836 q 236 810 254 810 q 205 823 218 810 q 192 854 192 836 "},"#":{"ha":1002,"x_min":68,"x_max":935,"o":"m 360 389 l 588 389 l 625 584 l 397 584 l 360 389 m 578 1 q 538 27 553 6 q 529 73 524 48 l 565 265 l 337 265 l 297 51 q 275 14 292 28 q 236 0 258 0 q 224 1 230 0 q 184 27 199 6 q 175 73 170 48 l 211 265 l 130 265 q 86 283 104 265 q 68 328 68 302 q 86 371 68 353 q 130 389 104 389 l 234 389 l 271 584 l 183 584 q 139 602 157 584 q 121 646 121 620 q 139 690 121 671 q 183 708 157 708 l 294 708 l 334 922 q 360 962 339 948 q 406 972 381 977 q 446 946 432 967 q 456 900 460 925 l 420 708 l 648 708 l 688 922 q 714 962 693 948 q 760 972 735 977 q 800 946 785 967 q 810 900 814 925 l 774 708 l 873 708 q 917 690 899 708 q 935 646 935 671 q 917 602 935 620 q 873 584 899 584 l 751 584 l 714 389 l 820 389 q 863 371 846 389 q 882 328 882 353 q 863 283 882 302 q 820 265 846 265 l 691 265 l 650 51 q 629 14 646 28 q 590 0 612 0 q 578 1 584 0 "},"$":{"ha":701,"x_min":68,"x_max":633,"o":"m 413 741 l 288 741 q 220 712 248 741 q 192 644 192 684 q 220 576 192 605 q 288 549 248 549 l 413 549 q 568 484 504 549 q 633 329 633 420 q 570 174 633 239 q 416 109 506 111 l 416 62 q 398 18 416 36 q 355 0 380 0 q 311 18 329 0 q 292 62 292 36 l 292 109 l 288 109 q 132 174 197 109 q 68 329 68 238 q 86 372 68 355 q 130 391 104 391 q 174 372 155 391 q 192 329 192 355 q 220 261 192 289 q 288 233 248 233 l 413 233 q 481 261 453 233 q 509 329 509 289 q 481 397 509 368 q 413 425 453 425 l 288 425 q 132 489 197 425 q 68 644 68 553 q 132 800 68 735 q 288 864 197 864 l 292 864 l 292 911 q 311 955 292 937 q 355 973 329 973 q 398 955 380 973 q 416 911 416 937 l 416 864 q 570 799 506 863 q 633 644 633 734 q 614 601 633 618 q 571 583 597 583 q 527 601 545 583 q 509 644 509 618 q 481 712 509 684 q 413 741 453 741 "},"%":{"ha":801,"x_min":68,"x_max":733,"o":"m 190 531 q 214 541 204 531 q 224 564 224 551 q 214 588 224 578 q 190 598 204 598 q 166 588 176 598 q 156 564 156 578 q 166 541 156 551 q 190 531 176 531 m 312 564 q 276 478 312 514 q 190 442 240 442 q 104 478 140 442 q 68 564 68 514 q 104 650 68 615 q 190 686 140 686 q 276 650 240 686 q 312 564 312 615 m 577 427 q 587 403 577 412 q 611 393 597 393 q 635 403 625 393 q 644 427 644 412 q 635 450 644 440 q 611 460 625 460 q 587 450 597 460 q 577 427 577 440 m 733 427 q 697 340 733 376 q 611 304 661 304 q 525 340 560 304 q 489 427 489 376 q 525 513 489 477 q 611 549 560 549 q 697 513 661 549 q 733 427 733 477 m 309 1 q 270 27 284 6 q 260 73 255 48 l 419 922 q 445 962 424 948 q 492 972 467 977 q 531 946 517 967 q 541 900 546 925 l 382 51 q 360 14 378 28 q 321 0 343 0 q 309 1 315 0 "},"&":{"ha":844,"x_min":68,"x_max":776,"o":"m 371 0 l 366 0 q 155 90 242 1 q 68 302 68 178 q 189 543 68 452 q 108 726 108 616 q 180 900 108 827 q 354 972 252 972 l 370 972 q 544 900 472 972 q 616 726 616 827 q 598 682 616 700 q 554 664 580 664 q 511 682 529 664 q 492 726 492 700 q 456 812 492 777 q 370 848 420 848 l 354 848 q 267 812 303 848 q 232 726 232 777 q 267 639 232 675 q 354 604 303 604 l 389 604 q 433 585 415 604 q 452 541 452 567 q 433 498 452 515 q 389 479 415 479 l 370 479 q 243 427 296 479 q 192 302 192 375 q 243 176 192 229 q 369 124 296 124 q 481 165 432 124 q 542 265 529 205 l 501 265 q 458 283 475 265 q 439 328 439 302 q 458 371 439 353 q 501 389 475 389 l 713 389 q 758 371 739 389 q 776 328 776 353 q 758 283 776 302 q 713 265 739 265 l 667 265 q 570 78 654 154 q 371 0 485 1 "},"'":{"ha":224,"x_min":68,"x_max":156,"o":"m 156 926 l 156 854 q 143 823 156 836 q 112 810 130 810 q 81 823 94 810 q 68 854 68 836 l 68 926 q 81 957 68 944 q 112 970 94 970 q 143 957 130 970 q 156 926 156 944 "},"(":{"ha":486,"x_min":68,"x_max":418,"o":"m 401 -14 q 418 -58 418 -33 q 401 -102 418 -84 q 357 -120 382 -120 q 313 -102 331 -120 q 129 175 193 18 q 68 490 68 326 q 129 805 68 654 q 313 1082 193 962 q 357 1100 331 1100 q 401 1082 382 1100 q 418 1038 418 1064 q 401 994 418 1013 q 192 490 192 786 q 401 -14 192 194 "},")":{"ha":486,"x_min":68,"x_max":418,"o":"m 86 -104 q 68 -60 68 -86 q 86 -16 68 -35 q 295 488 295 193 q 86 992 295 783 q 68 1036 68 1010 q 86 1080 68 1062 q 130 1098 104 1098 q 174 1080 155 1098 q 357 803 294 960 q 418 488 418 652 q 357 173 418 324 q 174 -104 294 16 q 130 -122 155 -122 q 86 -104 104 -122 "},"*":{"ha":300,"x_min":68,"x_max":232,"o":"m 132 812 l 132 845 l 104 827 q 94 823 99 823 q 78 832 83 823 q 83 858 68 848 l 116 880 l 83 902 q 78 928 68 912 q 104 933 88 943 l 132 915 l 132 947 q 150 966 132 966 q 169 947 169 966 l 169 915 l 196 933 q 222 928 212 943 q 216 902 232 912 l 184 880 l 216 858 q 222 832 232 848 q 206 823 216 823 q 196 827 201 823 l 169 845 l 169 812 q 150 793 169 793 q 132 812 132 793 "},"+":{"ha":560,"x_min":68,"x_max":492,"o":"m 342 420 l 342 332 q 324 288 342 306 q 280 270 306 270 q 236 288 254 270 q 218 332 218 306 l 218 420 l 130 420 q 86 439 104 420 q 68 482 68 456 q 86 526 68 508 q 130 544 104 544 l 218 544 l 218 633 q 236 676 218 659 q 280 694 254 694 q 324 676 306 694 q 342 633 342 659 l 342 544 l 431 544 q 474 526 456 544 q 492 482 492 508 q 474 439 492 456 q 431 420 456 420 l 342 420 "},",":{"ha":260,"x_min":68,"x_max":192,"o":"m 130 124 q 174 106 155 124 q 192 62 192 87 l 192 -42 q 174 -85 192 -68 q 130 -104 155 -104 q 86 -85 104 -104 q 68 -42 68 -68 l 68 62 q 86 106 68 87 q 130 124 104 124 "},"-":{"ha":560,"x_min":68,"x_max":492,"o":"m 492 485 q 474 441 492 459 q 431 423 456 423 l 130 423 q 86 441 104 423 q 68 485 68 459 q 86 529 68 511 q 130 547 104 547 l 431 547 q 474 529 456 547 q 492 485 492 511 "},".":{"ha":260,"x_min":68,"x_max":192,"o":"m 86 106 q 130 124 104 124 q 174 106 155 124 q 192 62 192 87 q 174 18 192 37 q 130 0 155 0 q 86 18 104 0 q 68 62 68 37 q 86 106 68 87 "},"/":{"ha":426,"x_min":68,"x_max":358,"o":"m 304 972 q 344 946 329 967 q 353 900 358 925 l 194 50 q 172 14 190 28 q 134 0 155 0 q 122 1 127 0 q 82 27 96 6 q 73 73 68 48 l 232 922 q 258 962 236 948 q 304 972 279 977 "},":":{"ha":260,"x_min":68,"x_max":192,"o":"m 130 124 q 174 106 155 124 q 192 62 192 87 q 174 18 192 37 q 130 0 155 0 q 86 18 104 0 q 68 62 68 37 q 86 106 68 87 q 130 124 104 124 m 130 549 q 174 530 155 549 q 192 486 192 512 q 174 443 192 461 q 130 425 155 425 q 86 443 104 425 q 68 486 68 461 q 86 530 68 512 q 130 549 104 549 "},";":{"ha":260,"x_min":68,"x_max":192,"o":"m 130 557 q 174 539 155 557 q 192 495 192 521 q 174 452 192 470 q 130 433 155 433 q 86 452 104 433 q 68 495 68 470 q 86 539 68 521 q 130 557 104 557 m 130 123 q 174 104 155 123 q 192 61 192 86 l 192 -43 q 174 -87 192 -69 q 130 -105 155 -105 q 86 -87 104 -105 q 68 -43 68 -69 l 68 61 q 86 104 68 86 q 130 123 104 123 "},"<":{"ha":437,"x_min":68,"x_max":370,"o":"m 353 684 q 368 640 370 665 q 348 597 367 614 l 222 484 l 348 370 q 368 328 367 353 q 353 283 370 302 q 307 262 334 262 q 265 278 283 262 l 88 437 q 68 484 68 456 q 88 530 68 511 l 265 689 q 310 705 284 706 q 353 684 336 703 "},"=":{"ha":560,"x_min":68,"x_max":492,"o":"m 130 655 l 431 655 q 474 637 456 655 q 492 593 492 618 q 474 549 492 568 q 431 531 456 531 l 130 531 q 86 549 104 531 q 68 593 68 568 q 86 637 68 618 q 130 655 104 655 m 130 443 l 431 443 q 474 425 456 443 q 492 380 492 406 q 474 337 492 355 q 431 319 456 319 l 130 319 q 86 337 104 319 q 68 380 68 355 q 86 425 68 406 q 130 443 104 443 "},">":{"ha":438,"x_min":68,"x_max":370,"o":"m 85 684 q 128 705 102 703 q 172 689 153 706 l 349 530 q 370 484 370 511 q 349 437 370 456 l 172 278 q 131 262 155 262 q 85 283 104 262 q 69 328 68 302 q 90 370 71 353 l 216 484 l 90 597 q 69 640 71 614 q 85 684 68 665 "},"?":{"ha":720,"x_min":68,"x_max":652,"o":"m 652 681 q 586 497 652 577 q 422 396 521 417 l 422 221 q 404 178 422 195 q 359 159 385 159 q 316 178 334 159 q 298 221 298 195 l 298 451 q 316 495 298 477 q 359 513 334 513 q 479 562 429 513 q 528 681 528 612 q 479 800 528 751 q 359 849 429 849 q 241 800 290 849 q 192 681 192 751 q 174 637 192 656 q 130 619 155 619 q 86 637 104 619 q 68 681 68 656 q 153 888 68 802 q 359 973 239 973 q 566 888 480 973 q 652 681 652 802 m 359 124 q 404 106 385 124 q 422 62 422 87 q 404 18 422 37 q 359 0 385 0 q 316 18 334 0 q 298 62 298 37 q 316 106 298 87 q 359 124 334 124 "},"@":{"ha":1111,"x_min":68,"x_max":1043,"o":"m 424 488 q 463 395 424 433 q 557 356 502 356 q 650 395 612 356 q 689 488 689 433 q 650 583 689 543 q 557 621 612 621 q 463 583 502 621 q 424 488 424 543 m 1043 471 q 1042 467 1042 465 q 929 176 1036 302 q 929 176 929 176 q 901 144 916 159 q 857 126 882 126 q 813 144 831 126 l 689 269 q 557 232 628 232 q 375 307 450 232 q 300 488 300 382 q 375 670 300 595 q 557 745 450 745 q 738 670 663 745 q 813 488 813 595 q 777 356 813 417 l 853 279 q 909 402 892 336 q 907 583 931 493 q 813 745 882 677 q 557 851 707 851 q 300 745 406 851 q 197 533 212 657 q 243 306 182 412 q 285 248 261 275 q 286 247 288 245 q 288 244 286 248 q 300 232 294 238 q 302 229 301 231 q 420 151 355 177 q 654 138 540 102 q 701 134 678 146 q 731 98 724 122 q 727 51 739 73 q 691 20 715 28 q 557 0 627 0 q 374 36 462 0 q 209 148 281 74 q 188 171 199 159 q 188 172 188 171 q 187 172 187 172 q 182 177 184 176 q 114 287 140 227 q 102 315 107 301 q 70 489 68 403 q 212 833 71 690 q 557 975 355 975 q 901 833 758 975 q 1043 488 1043 690 l 1043 477 q 1043 471 1043 476 "},"A":{"ha":1016,"x_min":68,"x_max":948,"o":"m 930 28 q 878 0 911 0 l 418 0 q 374 18 392 0 q 356 62 356 37 q 374 106 356 87 q 418 124 392 124 l 783 124 l 506 757 l 191 37 q 135 0 175 0 q 110 5 122 0 q 77 39 86 16 q 78 87 68 63 l 450 936 q 506 973 466 973 q 563 936 547 973 l 935 87 q 930 28 948 56 "},"B":{"ha":879,"x_min":68,"x_max":811,"o":"m 192 425 l 192 124 l 536 124 q 643 168 599 124 q 687 274 687 212 q 643 380 687 336 q 536 425 599 425 l 192 425 m 192 849 l 192 549 l 466 549 q 572 593 528 549 q 616 699 616 637 q 572 805 616 761 q 466 849 528 849 l 192 849 m 536 0 l 130 0 q 86 18 104 0 q 68 62 68 36 l 68 911 q 86 955 68 937 q 130 973 104 973 l 466 973 q 660 892 579 973 q 740 699 740 812 q 669 515 740 593 q 772 416 733 479 q 811 274 811 351 q 730 81 811 161 q 536 0 650 0 "},"C":{"ha":985,"x_min":68,"x_max":917,"o":"m 554 0 q 210 142 353 0 q 68 486 68 285 q 210 831 68 688 q 554 973 353 973 q 899 831 756 973 q 917 787 917 812 q 899 743 917 761 q 854 725 880 725 q 811 743 829 725 q 554 849 705 849 q 298 743 404 849 q 192 486 192 637 q 298 230 192 336 q 554 124 404 124 q 811 230 705 124 q 854 248 829 248 q 899 230 880 248 q 917 186 917 212 q 899 142 917 161 q 554 0 756 0 "},"D":{"ha":897,"x_min":68,"x_max":829,"o":"m 829 486 q 686 142 829 285 q 342 0 544 0 l 130 0 q 86 18 104 0 q 68 62 68 36 q 86 106 68 87 q 130 124 104 124 l 342 124 q 598 230 492 124 q 705 486 705 336 q 598 743 705 637 q 342 849 492 849 l 130 849 q 86 867 104 849 q 68 911 68 886 q 86 955 68 937 q 130 973 104 973 l 342 973 q 686 831 544 973 q 829 486 829 688 "},"E":{"ha":844,"x_min":68,"x_max":776,"o":"m 776 62 q 758 18 776 36 q 713 0 739 0 l 130 0 q 86 18 104 0 q 68 62 68 36 q 86 106 68 87 q 130 124 104 124 l 713 124 q 758 106 739 124 q 776 62 776 87 m 130 973 l 713 973 q 758 955 739 973 q 776 911 776 937 q 758 867 776 886 q 713 849 739 849 l 130 849 q 86 867 104 849 q 68 911 68 886 q 86 955 68 937 q 130 973 104 973 m 130 549 l 713 549 q 758 530 739 549 q 776 486 776 512 q 758 443 776 461 q 713 425 739 425 l 130 425 q 86 443 104 425 q 68 486 68 461 q 86 530 68 512 q 130 549 104 549 "},"F":{"ha":844,"x_min":68,"x_max":776,"o":"m 130 0 q 86 18 104 0 q 68 62 68 36 l 68 911 q 86 955 68 937 q 130 973 104 973 l 713 973 q 758 955 739 973 q 776 911 776 937 q 758 867 776 886 q 713 849 739 849 l 192 849 l 192 549 l 572 549 q 616 530 597 549 q 634 486 634 512 q 616 443 634 461 q 572 425 597 425 l 192 425 l 192 62 q 174 18 192 36 q 130 0 155 0 "},"G":{"ha":984,"x_min":68,"x_max":916,"o":"m 210 142 q 68 486 68 285 q 210 831 68 688 q 554 973 353 973 q 899 831 756 973 q 916 787 916 812 q 899 743 916 761 q 854 725 880 725 q 811 743 829 725 q 554 849 705 849 q 298 743 404 849 q 192 486 192 637 q 298 230 192 336 q 543 124 399 129 q 793 213 686 119 l 793 425 l 536 425 q 493 443 511 425 q 475 486 475 461 q 493 530 475 512 q 536 549 511 549 l 854 549 q 899 530 880 549 q 916 486 916 512 l 916 186 q 899 142 916 161 q 554 0 756 0 q 210 142 353 0 "},"H":{"ha":879,"x_min":68,"x_max":811,"o":"m 130 0 q 86 18 104 0 q 68 62 68 36 l 68 911 q 86 955 68 937 q 130 973 104 973 q 174 955 155 973 q 192 911 192 937 l 192 549 l 687 549 l 687 911 q 705 955 687 937 q 749 973 724 973 q 793 955 774 973 q 811 911 811 937 l 811 62 q 793 18 811 36 q 749 0 774 0 q 705 18 724 0 q 687 62 687 36 l 687 425 l 192 425 l 192 62 q 174 18 192 36 q 130 0 155 0 "},"I":{"ha":260,"x_min":68,"x_max":192,"o":"m 130 0 q 86 18 104 0 q 68 62 68 36 l 68 911 q 86 955 68 937 q 130 973 104 973 q 174 955 155 973 q 192 911 192 937 l 192 62 q 174 18 192 36 q 130 0 155 0 "},"J":{"ha":560,"x_min":68,"x_max":492,"o":"m 130 0 q 86 18 104 0 q 68 62 68 36 q 86 106 68 87 q 130 124 104 124 q 298 194 229 124 q 369 363 369 264 l 369 911 q 387 955 369 937 q 431 973 405 973 q 474 955 456 973 q 492 911 492 937 l 492 363 q 386 106 492 213 q 130 0 279 0 "},"K":{"ha":827,"x_min":68,"x_max":759,"o":"m 68 62 l 68 911 q 86 955 68 937 q 130 973 104 973 q 174 955 155 973 q 192 911 192 937 l 192 538 l 654 957 q 699 973 673 975 q 742 953 724 972 q 758 908 759 934 q 737 865 756 882 l 357 520 l 741 104 q 758 60 759 85 q 738 16 757 34 q 696 0 720 0 q 650 20 669 0 l 265 437 l 192 371 l 192 62 q 174 18 192 36 q 130 0 155 0 q 86 18 104 0 q 68 62 68 36 "},"L":{"ha":861,"x_min":68,"x_max":793,"o":"m 731 0 l 130 0 q 86 18 104 0 q 68 62 68 36 l 68 911 q 86 955 68 937 q 130 973 104 973 q 174 955 155 973 q 192 911 192 937 l 192 124 l 731 124 q 775 106 757 124 q 793 62 793 87 q 775 18 793 36 q 731 0 757 0 "},"M":{"ha":1038,"x_min":68,"x_max":970,"o":"m 130 0 q 86 18 104 0 q 68 62 68 36 l 68 911 q 111 970 68 956 q 180 947 154 984 l 519 470 l 858 947 q 927 970 884 984 q 970 911 970 956 l 970 62 q 952 18 970 36 q 908 0 934 0 q 865 18 882 0 q 846 62 846 36 l 846 717 l 570 327 q 519 301 551 301 q 469 327 487 301 l 192 717 l 192 62 q 174 18 192 36 q 130 0 155 0 "},"N":{"ha":914,"x_min":68,"x_max":846,"o":"m 130 0 q 86 18 104 0 q 68 62 68 36 l 68 911 q 110 970 68 956 q 179 949 152 984 l 722 243 l 722 911 q 741 955 722 937 q 785 973 759 973 q 828 955 810 973 q 846 911 846 937 l 846 62 q 804 3 846 18 q 785 0 795 0 q 735 24 754 0 l 192 730 l 192 62 q 174 18 192 36 q 130 0 155 0 "},"O":{"ha":1109,"x_min":68,"x_max":1041,"o":"m 554 849 q 298 743 404 849 q 192 486 192 637 q 298 230 192 336 q 554 124 404 124 q 810 230 705 124 q 917 486 917 336 q 810 743 917 637 q 554 849 705 849 m 554 0 q 210 142 353 0 q 68 486 68 285 q 210 831 68 688 q 554 973 353 973 q 899 831 756 973 q 1041 486 1041 688 q 899 142 1041 285 q 554 0 756 0 "},"P":{"ha":844,"x_min":68,"x_max":776,"o":"m 458 849 l 130 849 q 86 867 104 849 q 68 911 68 886 q 86 955 68 937 q 130 973 104 973 l 458 973 q 682 880 589 973 q 776 656 776 787 q 682 431 776 524 q 458 338 589 338 l 192 338 l 192 62 q 174 18 192 36 q 130 0 155 0 q 86 18 104 0 q 68 62 68 36 l 68 400 q 86 444 68 426 q 130 463 104 463 l 458 463 q 595 519 538 463 q 652 656 652 576 q 595 793 652 736 q 458 849 538 849 "},"Q":{"ha":1109,"x_min":68,"x_max":1041,"o":"m 616 186 l 616 130 q 831 252 745 152 q 917 487 917 354 q 810 743 917 637 q 554 850 705 850 q 298 743 404 850 q 192 487 192 637 q 278 252 192 354 q 492 130 363 152 l 492 186 q 511 230 492 212 q 554 248 529 248 q 598 230 580 248 q 616 186 616 212 m 554 974 q 899 831 756 974 q 1041 487 1041 688 q 899 143 1041 286 q 616 4 781 25 l 616 -62 q 598 -105 616 -87 q 554 -123 580 -123 q 511 -105 529 -123 q 492 -62 492 -87 l 492 4 q 210 143 328 25 q 68 487 68 286 q 210 831 68 688 q 554 974 353 974 "},"R":{"ha":852,"x_min":68,"x_max":785,"o":"m 130 0 q 86 18 104 0 q 68 62 68 36 l 68 400 q 86 444 68 426 q 130 463 104 463 l 456 463 q 593 519 536 463 q 650 656 650 576 q 593 793 650 736 q 456 849 536 849 l 130 849 q 86 867 104 849 q 68 911 68 886 q 86 955 68 937 q 130 973 104 973 l 456 973 q 681 880 588 973 q 774 656 774 787 q 707 462 774 547 q 541 350 642 378 l 767 104 q 784 60 785 85 q 764 16 783 34 q 722 0 746 0 q 676 20 694 0 l 382 338 l 192 338 l 192 62 q 174 18 192 36 q 130 0 155 0 "},"S":{"ha":853,"x_min":68,"x_max":785,"o":"m 342 124 l 511 124 q 617 168 573 124 q 661 274 661 212 q 617 380 661 336 q 511 425 573 425 l 342 425 q 149 505 229 425 q 68 699 68 585 q 149 892 68 812 q 342 973 229 973 l 511 973 q 705 892 624 973 q 785 699 785 812 q 767 655 785 673 q 723 637 749 637 q 680 655 697 637 q 661 699 661 673 q 617 805 661 761 q 511 849 573 849 l 342 849 q 236 805 280 849 q 192 699 192 761 q 236 593 192 637 q 342 549 280 549 l 511 549 q 705 468 624 549 q 785 274 785 388 q 705 81 785 161 q 511 0 624 0 l 342 0 q 149 81 229 0 q 68 274 68 161 q 86 318 68 300 q 130 336 104 336 q 174 318 155 336 q 192 274 192 300 q 236 168 192 212 q 342 124 280 124 "},"T":{"ha":914,"x_min":68,"x_max":846,"o":"m 395 849 l 130 849 q 86 867 104 849 q 68 911 68 886 q 86 955 68 937 q 130 973 104 973 l 785 973 q 828 955 810 973 q 846 911 846 937 q 828 867 846 886 q 785 849 810 849 l 519 849 l 519 62 q 501 18 519 36 q 457 0 483 0 q 413 18 431 0 q 395 62 395 36 l 395 849 "},"U":{"ha":879,"x_min":68,"x_max":811,"o":"m 439 0 q 177 109 286 0 q 68 372 68 218 l 68 911 q 86 955 68 937 q 130 973 104 973 q 174 955 155 973 q 192 911 192 937 l 192 372 q 264 197 192 269 q 439 124 337 124 q 614 197 542 124 q 687 372 687 269 l 687 911 q 705 955 687 937 q 749 973 724 973 q 793 955 774 973 q 811 911 811 937 l 811 372 q 702 109 811 218 q 439 0 593 0 "},"V":{"ha":1013,"x_min":68,"x_max":945,"o":"m 450 37 l 78 886 q 77 934 68 910 q 110 968 86 958 q 157 969 134 978 q 191 936 181 960 l 506 216 l 821 936 q 855 969 831 960 q 903 968 879 978 q 935 934 926 958 q 935 886 945 910 l 563 37 q 506 0 547 0 q 450 37 466 0 "},"W":{"ha":1367,"x_min":68,"x_max":1299,"o":"m 450 37 l 78 886 q 77 934 68 910 q 110 968 86 958 q 157 969 134 978 q 191 936 181 960 l 506 217 l 621 481 q 679 519 637 519 q 735 482 718 518 l 859 213 l 1175 936 q 1209 969 1185 960 q 1257 968 1233 978 q 1289 934 1280 958 q 1289 886 1299 910 l 917 37 q 861 0 901 1 l 860 0 q 804 36 821 0 l 680 306 l 563 37 q 506 0 547 0 q 450 37 466 0 "},"X":{"ha":920,"x_min":68,"x_max":852,"o":"m 95 13 q 71 54 75 28 q 83 100 68 79 l 382 486 l 83 873 q 71 919 68 894 q 95 960 75 945 q 140 972 115 976 q 182 949 166 969 l 460 588 l 738 949 q 779 972 753 969 q 825 960 804 976 q 848 919 845 945 q 836 873 852 894 l 538 486 l 836 100 q 848 54 852 79 q 825 13 845 28 q 787 0 808 0 q 738 24 757 0 l 460 385 l 182 24 q 132 0 163 0 q 95 13 111 0 "},"Y":{"ha":940,"x_min":68,"x_max":872,"o":"m 408 362 l 81 878 q 73 925 68 900 q 101 964 79 949 q 147 972 123 977 q 186 944 172 966 l 470 496 l 754 944 q 793 972 768 966 q 840 964 818 977 q 867 925 861 949 q 859 878 872 900 l 532 362 l 532 62 q 514 18 532 36 q 470 0 496 0 q 427 18 444 0 q 408 62 408 36 l 408 362 "},"Z":{"ha":899,"x_min":68,"x_max":831,"o":"m 760 0 l 140 0 q 85 34 102 0 q 90 98 68 68 l 637 849 l 140 849 q 96 867 115 849 q 78 911 78 886 q 96 955 78 937 q 140 973 115 973 l 760 973 q 814 939 798 973 q 809 875 831 905 l 262 124 l 760 124 q 803 106 785 124 q 821 62 821 87 q 803 18 821 36 q 760 0 785 0 "},"[":{"ha":418,"x_min":68,"x_max":351,"o":"m 289 1011 l 192 1011 l 192 -33 l 289 -33 q 333 -51 315 -33 q 351 -95 351 -69 q 333 -138 351 -121 q 289 -157 315 -157 l 130 -157 q 86 -138 104 -157 q 68 -95 68 -121 l 68 1073 q 86 1117 68 1099 q 130 1135 104 1135 l 289 1135 q 333 1117 315 1135 q 351 1073 351 1099 q 333 1029 351 1047 q 289 1011 315 1011 "},"]":{"ha":418,"x_min":68,"x_max":351,"o":"m 351 1073 l 351 -95 q 333 -138 351 -121 q 289 -157 315 -157 l 130 -157 q 86 -138 104 -157 q 68 -95 68 -121 q 86 -51 68 -69 q 130 -33 104 -33 l 227 -33 l 227 1011 l 130 1011 q 86 1029 104 1011 q 68 1073 68 1047 q 86 1117 68 1099 q 130 1135 104 1135 l 289 1135 q 333 1117 315 1135 q 351 1073 351 1099 "},"_":{"ha":560,"x_min":68,"x_max":492,"o":"m 492 62 q 474 18 492 36 q 431 0 456 0 l 130 0 q 86 18 104 0 q 68 62 68 36 q 86 106 68 87 q 130 124 104 124 l 431 124 q 474 106 456 124 q 492 62 492 87 "},"`":{"ha":224,"x_min":68,"x_max":156,"o":"m 156 926 l 156 854 q 143 823 156 836 q 112 810 130 810 q 81 823 94 810 q 68 854 68 836 l 68 926 q 81 957 68 944 q 112 970 94 970 q 143 957 130 970 q 156 926 156 944 "},"a":{"ha":1013,"x_min":68,"x_max":945,"o":"m 353 407 l 659 407 l 506 757 l 353 407 m 563 936 l 935 87 q 935 39 945 64 q 903 5 926 16 q 878 0 890 0 q 821 37 838 0 l 713 283 l 299 283 l 191 37 q 157 5 181 14 q 110 5 134 -5 q 77 39 86 16 q 78 87 68 64 l 450 936 q 506 973 466 973 q 563 936 547 973 "},"b":{"ha":879,"x_min":68,"x_max":811,"o":"m 192 425 l 192 124 l 536 124 q 643 168 599 124 q 687 274 687 212 q 643 380 687 336 q 536 425 599 425 l 192 425 m 192 849 l 192 549 l 466 549 q 572 593 528 549 q 616 699 616 637 q 572 805 616 761 q 466 849 528 849 l 192 849 m 536 0 l 130 0 q 86 18 104 0 q 68 62 68 36 l 68 911 q 86 955 68 937 q 130 973 104 973 l 466 973 q 660 892 579 973 q 740 699 740 812 q 669 515 740 593 q 772 416 733 479 q 811 274 811 351 q 730 81 811 161 q 536 0 650 0 "},"c":{"ha":985,"x_min":68,"x_max":917,"o":"m 554 0 q 210 142 353 0 q 68 486 68 285 q 210 831 68 688 q 554 973 353 973 q 899 831 756 973 q 917 787 917 812 q 899 743 917 761 q 854 725 880 725 q 811 743 829 725 q 554 849 705 849 q 298 743 404 849 q 192 486 192 637 q 298 230 192 336 q 554 124 404 124 q 811 230 705 124 q 854 248 829 248 q 899 230 880 248 q 917 186 917 212 q 899 142 917 161 q 554 0 756 0 "},"d":{"ha":897,"x_min":68,"x_max":829,"o":"m 192 849 l 192 124 l 342 124 q 598 230 492 124 q 705 486 705 336 q 598 743 705 637 q 342 849 492 849 l 192 849 m 342 0 l 130 0 q 86 18 104 0 q 68 62 68 36 l 68 911 q 86 955 68 937 q 130 973 104 973 l 342 973 q 686 831 544 973 q 829 486 829 688 q 686 142 829 285 q 342 0 544 0 "},"e":{"ha":844,"x_min":68,"x_max":776,"o":"m 713 0 l 130 0 q 86 18 104 0 q 68 62 68 36 l 68 911 q 86 955 68 937 q 130 973 104 973 l 713 973 q 758 955 739 973 q 776 911 776 937 q 758 867 776 886 q 713 849 739 849 l 192 849 l 192 549 l 572 549 q 616 530 597 549 q 634 486 634 512 q 616 443 634 461 q 572 425 597 425 l 192 425 l 192 124 l 713 124 q 758 106 739 124 q 776 62 776 87 q 758 18 776 36 q 713 0 739 0 "},"f":{"ha":844,"x_min":68,"x_max":776,"o":"m 130 0 q 86 18 104 0 q 68 62 68 36 l 68 911 q 86 955 68 937 q 130 973 104 973 l 713 973 q 758 955 739 973 q 776 911 776 937 q 758 867 776 886 q 713 849 739 849 l 192 849 l 192 549 l 572 549 q 616 530 597 549 q 634 486 634 512 q 616 443 634 461 q 572 425 597 425 l 192 425 l 192 62 q 174 18 192 36 q 130 0 155 0 "},"g":{"ha":984,"x_min":68,"x_max":916,"o":"m 210 142 q 68 486 68 285 q 210 831 68 688 q 554 973 353 973 q 899 831 756 973 q 916 787 916 812 q 899 743 916 761 q 854 725 880 725 q 811 743 829 725 q 554 849 705 849 q 298 743 404 849 q 192 486 192 637 q 298 230 192 336 q 543 124 399 129 q 793 213 686 119 l 793 425 l 536 425 q 493 443 511 425 q 475 486 475 461 q 493 530 475 512 q 536 549 511 549 l 854 549 q 899 530 880 549 q 916 486 916 512 l 916 186 q 899 142 916 161 q 554 0 756 0 q 210 142 353 0 "},"h":{"ha":879,"x_min":68,"x_max":811,"o":"m 130 0 q 86 18 104 0 q 68 62 68 36 l 68 911 q 86 955 68 937 q 130 973 104 973 q 174 955 155 973 q 192 911 192 937 l 192 549 l 687 549 l 687 911 q 705 955 687 937 q 749 973 724 973 q 793 955 774 973 q 811 911 811 937 l 811 62 q 793 18 811 36 q 749 0 774 0 q 705 18 724 0 q 687 62 687 36 l 687 425 l 192 425 l 192 62 q 174 18 192 36 q 130 0 155 0 "},"i":{"ha":260,"x_min":68,"x_max":192,"o":"m 130 0 q 86 18 104 0 q 68 62 68 36 l 68 911 q 86 955 68 937 q 130 973 104 973 q 174 955 155 973 q 192 911 192 937 l 192 62 q 174 18 192 36 q 130 0 155 0 "},"j":{"ha":560,"x_min":68,"x_max":492,"o":"m 130 0 q 86 18 104 0 q 68 62 68 36 q 86 106 68 87 q 130 124 104 124 q 298 194 229 124 q 369 363 369 264 l 369 911 q 387 955 369 937 q 431 973 405 973 q 474 955 456 973 q 492 911 492 937 l 492 363 q 386 106 492 213 q 130 0 279 0 "},"k":{"ha":827,"x_min":68,"x_max":759,"o":"m 68 62 l 68 911 q 86 955 68 937 q 130 973 104 973 q 174 955 155 973 q 192 911 192 937 l 192 538 l 654 957 q 699 973 673 975 q 742 953 724 972 q 758 908 759 934 q 737 865 756 882 l 357 520 l 741 104 q 758 60 759 85 q 738 16 757 34 q 696 0 720 0 q 650 20 669 0 l 265 437 l 192 371 l 192 62 q 174 18 192 36 q 130 0 155 0 q 86 18 104 0 q 68 62 68 36 "},"l":{"ha":861,"x_min":68,"x_max":793,"o":"m 731 0 l 130 0 q 86 18 104 0 q 68 62 68 36 l 68 911 q 86 955 68 937 q 130 973 104 973 q 174 955 155 973 q 192 911 192 937 l 192 124 l 731 124 q 775 106 757 124 q 793 62 793 87 q 775 18 793 36 q 731 0 757 0 "},"m":{"ha":1038,"x_min":68,"x_max":970,"o":"m 130 0 q 86 18 104 0 q 68 62 68 36 l 68 911 q 111 970 68 956 q 180 947 154 984 l 519 470 l 858 947 q 927 970 884 984 q 970 911 970 956 l 970 62 q 952 18 970 36 q 908 0 934 0 q 865 18 882 0 q 846 62 846 36 l 846 717 l 570 327 q 519 301 551 301 q 469 327 487 301 l 192 717 l 192 62 q 174 18 192 36 q 130 0 155 0 "},"n":{"ha":914,"x_min":68,"x_max":846,"o":"m 130 0 q 86 18 104 0 q 68 62 68 36 l 68 911 q 110 970 68 956 q 179 949 152 984 l 722 243 l 722 911 q 741 955 722 937 q 785 973 759 973 q 828 955 810 973 q 846 911 846 937 l 846 62 q 804 3 846 18 q 785 0 795 0 q 735 24 754 0 l 192 730 l 192 62 q 174 18 192 36 q 130 0 155 0 "},"o":{"ha":1109,"x_min":68,"x_max":1041,"o":"m 554 849 q 298 743 404 849 q 192 486 192 637 q 298 230 192 336 q 554 124 404 124 q 810 230 705 124 q 917 486 917 336 q 810 743 917 637 q 554 849 705 849 m 554 0 q 210 142 353 0 q 68 486 68 285 q 210 831 68 688 q 554 973 353 973 q 899 831 756 973 q 1041 486 1041 688 q 899 142 1041 285 q 554 0 756 0 "},"p":{"ha":844,"x_min":68,"x_max":776,"o":"m 652 656 q 595 793 652 736 q 458 849 538 849 l 192 849 l 192 463 l 458 463 q 595 519 538 463 q 652 656 652 576 m 192 338 l 192 62 q 174 18 192 36 q 130 0 155 0 q 86 18 104 0 q 68 62 68 36 l 68 911 q 86 955 68 937 q 130 973 104 973 l 458 973 q 682 880 589 973 q 776 656 776 787 q 682 431 776 524 q 458 338 589 338 l 192 338 "},"q":{"ha":1109,"x_min":68,"x_max":1041,"o":"m 616 186 l 616 130 q 831 252 745 152 q 917 487 917 354 q 810 743 917 637 q 554 850 705 850 q 298 743 404 850 q 192 487 192 637 q 278 252 192 354 q 492 130 363 152 l 492 186 q 511 230 492 212 q 554 248 529 248 q 598 230 580 248 q 616 186 616 212 m 554 974 q 899 831 756 974 q 1041 487 1041 688 q 899 143 1041 286 q 616 4 781 25 l 616 -62 q 598 -105 616 -87 q 554 -123 580 -123 q 511 -105 529 -123 q 492 -62 492 -87 l 492 4 q 210 143 328 25 q 68 487 68 286 q 210 831 68 688 q 554 974 353 974 "},"r":{"ha":852,"x_min":68,"x_max":785,"o":"m 650 656 q 593 793 650 736 q 456 849 536 849 l 192 849 l 192 463 l 456 463 q 593 519 536 463 q 650 656 650 576 m 130 0 q 86 18 104 0 q 68 62 68 36 l 68 911 q 86 955 68 937 q 130 973 104 973 l 456 973 q 681 880 588 973 q 774 656 774 787 q 707 462 774 547 q 541 350 642 378 l 767 104 q 784 60 785 85 q 764 16 783 34 q 722 0 746 0 q 676 20 694 0 l 382 338 l 192 338 l 192 62 q 174 18 192 36 q 130 0 155 0 "},"s":{"ha":853,"x_min":68,"x_max":785,"o":"m 342 124 l 511 124 q 617 168 573 124 q 661 274 661 212 q 617 380 661 336 q 511 425 573 425 l 342 425 q 149 505 229 425 q 68 699 68 585 q 149 892 68 812 q 342 973 229 973 l 511 973 q 705 892 624 973 q 785 699 785 812 q 767 655 785 673 q 723 637 749 637 q 680 655 697 637 q 661 699 661 673 q 617 805 661 761 q 511 849 573 849 l 342 849 q 236 805 280 849 q 192 699 192 761 q 236 593 192 637 q 342 549 280 549 l 511 549 q 705 468 624 549 q 785 274 785 388 q 705 81 785 161 q 511 0 624 0 l 342 0 q 149 81 229 0 q 68 274 68 161 q 86 318 68 300 q 130 336 104 336 q 174 318 155 336 q 192 274 192 300 q 236 168 192 212 q 342 124 280 124 "},"t":{"ha":914,"x_min":68,"x_max":846,"o":"m 395 849 l 130 849 q 86 867 104 849 q 68 911 68 886 q 86 955 68 937 q 130 973 104 973 l 785 973 q 828 955 810 973 q 846 911 846 937 q 828 867 846 886 q 785 849 810 849 l 519 849 l 519 62 q 501 18 519 36 q 457 0 483 0 q 413 18 431 0 q 395 62 395 36 l 395 849 "},"u":{"ha":879,"x_min":68,"x_max":811,"o":"m 439 0 q 177 109 286 0 q 68 372 68 218 l 68 911 q 86 955 68 937 q 130 973 104 973 q 174 955 155 973 q 192 911 192 937 l 192 372 q 264 197 192 269 q 439 124 337 124 q 614 197 542 124 q 687 372 687 269 l 687 911 q 705 955 687 937 q 749 973 724 973 q 793 955 774 973 q 811 911 811 937 l 811 372 q 702 109 811 218 q 439 0 593 0 "},"v":{"ha":1013,"x_min":68,"x_max":945,"o":"m 450 37 l 78 886 q 77 934 68 910 q 110 968 86 958 q 157 969 134 978 q 191 936 181 960 l 506 216 l 821 936 q 855 969 831 960 q 903 968 879 978 q 935 934 926 958 q 935 886 945 910 l 563 37 q 506 0 547 0 q 450 37 466 0 "},"w":{"ha":1367,"x_min":68,"x_max":1299,"o":"m 450 37 l 78 886 q 77 934 68 910 q 110 968 86 958 q 157 969 134 978 q 191 936 181 960 l 506 217 l 621 481 q 679 519 637 519 q 735 482 718 518 l 859 213 l 1175 936 q 1209 969 1185 960 q 1257 968 1233 978 q 1289 934 1280 958 q 1289 886 1299 910 l 917 37 q 861 0 901 1 l 860 0 q 804 36 821 0 l 680 306 l 563 37 q 506 0 547 0 q 450 37 466 0 "},"x":{"ha":920,"x_min":68,"x_max":852,"o":"m 95 13 q 71 54 75 28 q 83 100 68 79 l 382 486 l 83 873 q 71 919 68 894 q 95 960 75 945 q 140 972 115 976 q 182 949 166 969 l 460 588 l 738 949 q 779 972 753 969 q 825 960 804 976 q 848 919 845 945 q 836 873 852 894 l 538 486 l 836 100 q 848 54 852 79 q 825 13 845 28 q 787 0 808 0 q 738 24 757 0 l 460 385 l 182 24 q 132 0 163 0 q 95 13 111 0 "},"y":{"ha":940,"x_min":68,"x_max":872,"o":"m 408 362 l 81 878 q 73 925 68 900 q 101 964 79 949 q 147 972 123 977 q 186 944 172 966 l 470 496 l 754 944 q 793 972 768 966 q 840 964 818 977 q 867 925 861 949 q 859 878 872 900 l 532 362 l 532 62 q 514 18 532 36 q 470 0 496 0 q 427 18 444 0 q 408 62 408 36 l 408 362 "},"z":{"ha":899,"x_min":68,"x_max":831,"o":"m 760 0 l 140 0 q 85 34 102 0 q 90 98 68 68 l 637 849 l 140 849 q 96 867 115 849 q 78 911 78 886 q 96 955 78 937 q 140 973 115 973 l 760 973 q 814 939 798 973 q 809 875 831 905 l 262 124 l 760 124 q 803 106 785 124 q 821 62 821 87 q 803 18 821 36 q 760 0 785 0 "},"©":{"ha":737,"x_min":68,"x_max":669,"o":"m 369 292 q 506 349 449 292 q 563 487 563 406 q 506 624 563 567 q 369 681 449 681 q 231 624 288 681 q 174 487 174 567 q 231 349 174 406 q 369 292 288 292 m 369 787 q 581 699 493 787 q 669 487 669 611 q 581 274 669 362 q 369 186 493 186 q 156 274 244 186 q 68 487 68 362 q 156 699 68 611 q 369 787 244 787 m 374 530 q 344 517 357 530 q 331 487 331 505 q 344 456 331 469 q 374 443 357 443 q 405 456 393 443 q 443 471 420 471 q 480 456 465 471 q 496 418 496 440 q 480 381 496 396 q 374 337 436 337 q 269 381 313 337 q 225 487 225 425 q 269 593 225 549 q 374 636 313 636 q 480 592 436 636 q 496 555 496 577 q 480 517 496 533 q 443 502 465 502 q 405 517 420 502 q 374 530 393 530 "},"´":{"ha":224,"x_min":68,"x_max":156,"o":"m 156 926 l 156 854 q 143 823 156 836 q 112 810 130 810 q 81 823 94 810 q 68 854 68 836 l 68 926 q 81 957 68 944 q 112 970 94 970 q 143 957 130 970 q 156 926 156 944 "},"À":{"ha":1013,"x_min":68,"x_max":945,"o":"m 353 407 l 659 407 l 506 757 l 353 407 m 563 936 l 935 87 q 935 39 945 64 q 903 5 926 16 q 878 0 890 0 q 821 37 838 0 l 713 283 l 299 283 l 191 37 q 157 5 181 14 q 110 5 134 -5 q 77 39 86 16 q 78 87 68 64 l 450 936 q 506 973 466 973 q 563 936 547 973 m 463 1128 q 488 1139 474 1139 q 513 1128 503 1139 l 564 1078 q 574 1053 574 1067 q 564 1028 574 1038 q 538 1017 553 1017 q 513 1028 524 1017 l 463 1078 q 453 1103 453 1088 q 463 1128 453 1118 "},"Á":{"ha":1013,"x_min":68,"x_max":945,"o":"m 353 407 l 659 407 l 506 757 l 353 407 m 563 936 l 935 87 q 935 39 945 64 q 903 5 926 16 q 878 0 890 0 q 821 37 838 0 l 713 283 l 299 283 l 191 37 q 157 5 181 14 q 110 5 134 -5 q 77 39 86 16 q 78 87 68 64 l 450 936 q 506 973 466 973 q 563 936 547 973 m 463 1078 l 513 1128 q 538 1139 524 1139 q 564 1128 553 1139 q 574 1103 574 1118 q 564 1078 574 1088 l 513 1028 q 488 1017 503 1017 q 463 1028 474 1017 q 453 1053 453 1038 q 463 1078 453 1067 "},"Â":{"ha":1013,"x_min":68,"x_max":945,"o":"m 353 407 l 659 407 l 506 757 l 353 407 m 563 936 l 935 87 q 935 39 945 64 q 903 5 926 16 q 878 0 890 0 q 821 37 838 0 l 713 283 l 299 283 l 191 37 q 157 5 181 14 q 110 5 134 -5 q 77 39 86 16 q 78 87 68 64 l 450 936 q 506 973 466 973 q 563 936 547 973 m 527 1129 l 583 1080 q 595 1055 594 1069 q 586 1029 595 1040 q 559 1017 575 1017 q 536 1027 546 1017 l 505 1055 l 478 1028 q 453 1017 468 1017 q 428 1028 439 1017 q 418 1053 418 1038 q 428 1078 418 1067 l 478 1128 q 502 1139 488 1138 q 527 1129 516 1139 "},"Ã":{"ha":1013,"x_min":68,"x_max":945,"o":"m 353 407 l 659 407 l 506 757 l 353 407 m 878 0 q 821 37 838 0 l 713 283 l 299 283 l 191 37 q 157 5 181 14 q 110 5 134 -5 q 77 39 86 16 q 78 87 68 64 l 450 936 q 506 973 466 973 q 563 936 547 973 l 935 87 q 935 39 945 64 q 903 5 926 16 q 878 0 890 0 m 587 1119 q 612 1128 598 1129 q 637 1118 627 1128 q 648 1093 648 1107 q 637 1068 647 1078 q 598 1037 614 1046 q 547 1023 573 1023 q 534 1024 541 1023 q 480 1051 509 1027 q 476 1055 477 1053 q 459 1062 465 1064 q 442 1050 452 1059 q 416 1040 431 1040 q 392 1051 402 1040 q 382 1076 382 1062 q 393 1101 383 1091 q 436 1128 415 1122 q 520 1110 479 1143 q 526 1105 522 1109 q 545 1094 539 1095 q 564 1099 553 1093 q 587 1119 572 1103 "},"Ä":{"ha":1013,"x_min":68,"x_max":945,"o":"m 552 1096 q 577 1106 562 1106 q 602 1096 591 1106 q 612 1071 612 1085 q 602 1046 612 1056 q 577 1035 591 1035 q 552 1046 562 1035 q 542 1071 542 1056 q 552 1096 542 1085 m 435 1106 q 460 1096 450 1106 q 471 1071 471 1085 q 460 1046 471 1056 q 435 1035 450 1035 q 410 1046 420 1035 q 400 1071 400 1056 q 410 1096 400 1085 q 435 1106 420 1106 m 353 407 l 659 407 l 506 757 l 353 407 m 903 5 q 878 0 890 0 q 821 37 838 0 l 713 283 l 299 283 l 191 37 q 157 5 181 14 q 110 5 134 -5 q 77 39 86 16 q 78 87 68 64 l 450 936 q 506 973 466 973 q 563 936 547 973 l 935 87 q 935 39 945 64 q 903 5 926 16 "},"Å":{"ha":1013,"x_min":68,"x_max":945,"o":"m 353 407 l 659 407 l 506 757 l 353 407 m 506 1075 q 477 1063 489 1075 q 465 1033 465 1050 q 477 1003 465 1016 q 506 991 489 991 q 536 1003 524 991 q 548 1033 548 1016 q 536 1063 548 1050 q 506 1075 524 1075 m 570 920 l 935 87 q 935 39 945 64 q 903 5 926 16 q 878 0 890 0 q 821 37 838 0 l 713 283 l 299 283 l 191 37 q 157 5 181 14 q 110 5 134 -5 q 77 39 86 16 q 78 87 68 64 l 442 920 q 376 1033 376 957 q 414 1125 376 1087 q 506 1164 452 1164 q 598 1125 560 1164 q 637 1033 637 1087 q 570 920 637 957 "},"Æ":{"ha":1202,"x_min":68,"x_max":1135,"o":"m 353 407 l 629 407 l 502 747 l 353 407 m 1072 849 l 595 849 l 709 549 l 1072 549 q 1116 530 1098 549 q 1135 486 1135 512 q 1116 443 1135 461 q 1072 425 1098 425 l 755 425 l 867 124 l 1072 124 q 1116 106 1098 124 q 1135 62 1135 87 q 1116 18 1135 37 q 1072 0 1098 0 l 825 0 q 767 40 782 0 l 675 283 l 299 283 l 191 37 q 135 0 175 0 q 110 5 122 0 q 77 39 86 16 q 78 87 68 63 l 201 369 q 201 370 201 369 q 201 370 201 370 l 449 935 q 454 944 451 940 l 454 945 q 456 948 455 946 q 456 948 456 948 q 459 951 458 949 q 460 952 459 951 q 463 955 461 954 l 463 956 q 465 958 464 956 q 466 958 466 958 q 469 961 468 960 q 469 961 469 961 l 469 961 q 473 963 471 962 l 473 964 q 473 964 474 964 q 473 964 473 964 l 473 964 q 477 966 475 965 q 481 968 479 966 q 481 968 481 968 q 486 970 484 968 q 489 970 487 970 q 490 971 490 971 q 494 972 492 972 q 494 972 494 972 l 494 972 q 498 972 496 972 q 499 972 499 972 q 503 973 501 973 l 504 973 q 506 973 505 973 l 1072 973 q 1116 955 1098 973 q 1135 911 1135 937 q 1116 867 1135 886 q 1072 849 1098 849 "},"Ç":{"ha":985,"x_min":68,"x_max":917,"o":"m 811 736 q 554 842 705 842 q 298 736 404 842 q 192 480 192 631 q 298 224 192 330 q 554 117 404 117 q 811 224 705 117 q 854 241 829 241 q 899 224 880 241 q 917 180 917 205 q 899 136 917 154 q 581 -5 766 4 l 581 -33 q 563 -77 581 -59 q 519 -95 545 -95 q 475 -77 493 -95 q 457 -33 457 -59 l 457 3 q 210 136 314 32 q 68 480 68 279 q 210 824 68 682 q 554 966 353 966 q 899 824 756 966 q 917 781 917 806 q 899 736 917 755 q 854 718 880 718 q 811 736 829 718 "},"È":{"ha":844,"x_min":68,"x_max":776,"o":"m 713 849 l 192 849 l 192 549 l 572 549 q 616 530 597 549 q 634 486 634 512 q 616 443 634 461 q 572 425 597 425 l 192 425 l 192 124 l 713 124 q 758 106 739 124 q 776 62 776 87 q 758 18 776 36 q 713 0 739 0 l 130 0 q 86 18 104 0 q 68 62 68 36 l 68 911 q 86 955 68 937 q 130 973 104 973 l 713 973 q 758 955 739 973 q 776 911 776 937 q 758 867 776 886 q 713 849 739 849 m 372 1128 q 397 1138 382 1138 q 422 1128 411 1138 l 472 1078 q 482 1053 482 1067 q 472 1027 482 1038 q 447 1017 461 1017 q 422 1027 432 1017 l 372 1078 q 361 1103 361 1088 q 372 1128 361 1118 "},"É":{"ha":844,"x_min":68,"x_max":776,"o":"m 713 849 l 192 849 l 192 549 l 572 549 q 616 530 597 549 q 634 486 634 512 q 616 443 634 461 q 572 425 597 425 l 192 425 l 192 124 l 713 124 q 758 106 739 124 q 776 62 776 87 q 758 18 776 36 q 713 0 739 0 l 130 0 q 86 18 104 0 q 68 62 68 36 l 68 911 q 86 955 68 937 q 130 973 104 973 l 713 973 q 758 955 739 973 q 776 911 776 937 q 758 867 776 886 q 713 849 739 849 m 372 1027 q 361 1053 361 1038 q 372 1078 361 1067 l 422 1128 q 447 1138 432 1138 q 472 1128 461 1138 q 482 1103 482 1118 q 472 1078 482 1088 l 422 1027 q 397 1017 411 1017 q 372 1027 382 1017 "},"Ê":{"ha":844,"x_min":68,"x_max":776,"o":"m 713 849 l 192 849 l 192 549 l 572 549 q 616 530 597 549 q 634 486 634 512 q 616 443 634 461 q 572 425 597 425 l 192 425 l 192 124 l 713 124 q 758 106 739 124 q 776 62 776 87 q 758 18 776 36 q 713 0 739 0 l 130 0 q 86 18 104 0 q 68 62 68 36 l 68 911 q 86 955 68 937 q 130 973 104 973 l 713 973 q 758 955 739 973 q 776 911 776 937 q 758 867 776 886 q 713 849 739 849 m 442 1129 l 498 1079 q 510 1055 509 1069 q 501 1029 511 1040 q 475 1017 490 1017 q 451 1026 461 1017 l 420 1054 l 393 1027 q 369 1017 383 1017 q 344 1027 354 1017 q 333 1053 333 1038 q 344 1078 333 1067 l 393 1128 q 418 1138 404 1138 q 442 1129 432 1139 "},"Ë":{"ha":844,"x_min":68,"x_max":776,"o":"m 713 849 l 192 849 l 192 549 l 572 549 q 616 530 597 549 q 634 486 634 512 q 616 443 634 461 q 572 425 597 425 l 192 425 l 192 124 l 713 124 q 758 106 739 124 q 776 62 776 87 q 758 18 776 36 q 713 0 739 0 l 130 0 q 86 18 104 0 q 68 62 68 36 l 68 911 q 86 955 68 937 q 130 973 104 973 l 713 973 q 758 955 739 973 q 776 911 776 937 q 758 867 776 886 q 713 849 739 849 m 467 1095 q 492 1106 478 1106 q 517 1095 507 1106 q 528 1070 528 1085 q 517 1045 528 1056 q 492 1035 507 1035 q 467 1045 477 1035 q 457 1070 457 1056 q 467 1095 457 1085 m 326 1095 q 351 1106 336 1106 q 376 1095 366 1106 q 387 1070 387 1085 q 376 1045 387 1056 q 351 1035 366 1035 q 326 1045 336 1035 q 315 1070 315 1056 q 326 1095 315 1085 "},"Ì":{"ha":260,"x_min":68,"x_max":192,"o":"m 130 973 q 174 955 155 973 q 192 911 192 937 l 192 62 q 174 18 192 36 q 130 0 155 0 q 86 18 104 0 q 68 62 68 36 l 68 911 q 86 955 68 937 q 130 973 104 973 m 130 1027 l 80 1078 q 69 1103 69 1088 q 80 1128 69 1118 q 104 1138 90 1138 q 130 1128 119 1138 l 180 1078 q 190 1053 190 1067 q 180 1027 190 1038 q 155 1017 170 1017 q 130 1027 140 1017 "},"Í":{"ha":260,"x_min":68,"x_max":192,"o":"m 130 973 q 174 955 155 973 q 192 911 192 937 l 192 62 q 174 18 192 36 q 130 0 155 0 q 86 18 104 0 q 68 62 68 36 l 68 911 q 86 955 68 937 q 130 973 104 973 m 80 1027 q 69 1053 69 1038 q 80 1078 69 1067 l 130 1128 q 155 1138 140 1138 q 180 1128 170 1138 q 190 1103 190 1118 q 180 1078 190 1088 l 130 1027 q 104 1017 119 1017 q 80 1027 90 1017 "},"Î":{"ha":313,"x_min":68,"x_max":245,"o":"m 156 973 q 200 955 182 973 q 218 911 218 937 l 218 62 q 200 18 218 36 q 156 0 182 0 q 113 18 131 0 q 94 62 94 36 l 94 911 q 113 955 94 937 q 156 973 131 973 m 177 1129 l 233 1079 q 245 1055 244 1069 q 236 1029 245 1040 q 210 1017 225 1017 q 186 1026 196 1017 l 155 1054 l 128 1027 q 103 1017 118 1017 q 78 1027 89 1017 q 68 1053 68 1038 q 78 1078 68 1067 l 128 1128 q 152 1138 138 1138 q 177 1129 166 1139 "},"Ï":{"ha":348,"x_min":68,"x_max":280,"o":"m 174 973 q 218 955 199 973 q 236 911 236 937 l 236 62 q 218 18 236 36 q 174 0 199 0 q 130 18 149 0 q 112 62 112 36 l 112 911 q 130 955 112 937 q 174 973 149 973 m 245 1106 q 270 1095 260 1106 q 280 1070 280 1085 q 270 1045 280 1056 q 245 1035 260 1035 q 220 1045 230 1035 q 210 1070 210 1056 q 220 1095 210 1085 q 245 1106 230 1106 m 138 1070 q 128 1045 138 1056 q 103 1035 118 1035 q 78 1045 89 1035 q 68 1070 68 1056 q 78 1095 68 1085 q 103 1106 89 1106 q 128 1095 118 1106 q 138 1070 138 1085 "},"Ð":{"ha":985,"x_min":68,"x_max":917,"o":"m 280 124 l 431 124 q 687 230 581 124 q 793 486 793 336 q 687 743 793 637 q 431 849 581 849 l 280 849 l 280 549 l 395 549 q 439 530 420 549 q 457 486 457 512 q 439 443 457 461 q 395 425 420 425 l 280 425 l 280 124 m 218 973 l 431 973 q 774 831 632 973 q 917 486 917 688 q 774 142 917 285 q 431 0 632 0 l 218 0 q 174 18 193 0 q 156 62 156 36 l 156 425 l 130 425 q 86 443 104 425 q 68 486 68 461 q 86 530 68 512 q 130 549 104 549 l 156 549 l 156 911 q 174 955 156 937 q 218 973 193 973 "},"Ñ":{"ha":914,"x_min":68,"x_max":846,"o":"m 384 1050 q 359 1040 374 1040 q 334 1051 344 1040 q 325 1076 324 1062 q 336 1101 325 1091 q 378 1128 357 1122 q 463 1110 420 1143 q 468 1105 464 1108 q 486 1094 481 1095 q 505 1099 495 1093 q 530 1118 513 1103 q 555 1128 540 1128 q 580 1118 570 1128 q 589 1093 590 1107 q 579 1067 589 1078 q 541 1037 557 1046 q 489 1023 515 1023 q 476 1023 482 1023 q 422 1051 451 1027 q 418 1055 419 1054 q 401 1061 407 1063 q 384 1050 395 1059 m 785 973 q 828 955 810 973 q 846 911 846 937 l 846 62 q 804 3 846 18 q 785 0 795 0 q 735 24 754 0 l 192 730 l 192 62 q 174 18 192 36 q 130 0 155 0 q 86 18 104 0 q 68 62 68 36 l 68 911 q 110 970 68 956 q 179 949 152 984 l 722 243 l 722 911 q 741 955 722 937 q 785 973 759 973 "},"Ò":{"ha":1109,"x_min":68,"x_max":1041,"o":"m 554 124 q 810 230 705 124 q 917 486 917 336 q 810 743 917 637 q 554 849 705 849 q 298 743 404 849 q 192 486 192 637 q 298 230 192 336 q 554 124 404 124 m 554 973 q 899 831 756 973 q 1041 486 1041 688 q 899 142 1041 285 q 554 0 756 0 q 210 142 353 0 q 68 486 68 285 q 210 831 68 688 q 554 973 353 973 m 554 1128 l 604 1078 q 615 1053 615 1067 q 604 1027 615 1038 q 579 1017 594 1017 q 554 1027 565 1017 l 505 1078 q 494 1103 494 1088 q 505 1128 494 1118 q 530 1138 515 1138 q 554 1128 544 1138 "},"Ó":{"ha":1109,"x_min":68,"x_max":1041,"o":"m 554 124 q 810 230 705 124 q 917 486 917 336 q 810 743 917 637 q 554 849 705 849 q 298 743 404 849 q 192 486 192 637 q 298 230 192 336 q 554 124 404 124 m 554 973 q 899 831 756 973 q 1041 486 1041 688 q 899 142 1041 285 q 554 0 756 0 q 210 142 353 0 q 68 486 68 285 q 210 831 68 688 q 554 973 353 973 m 530 1017 q 505 1027 515 1017 q 494 1053 494 1038 q 505 1078 494 1067 l 554 1128 q 579 1138 565 1138 q 604 1128 594 1138 q 615 1103 615 1118 q 604 1078 615 1088 l 554 1027 q 530 1017 544 1017 "},"Ô":{"ha":1109,"x_min":68,"x_max":1041,"o":"m 554 124 q 810 230 705 124 q 917 486 917 336 q 810 743 917 637 q 554 849 705 849 q 298 743 404 849 q 192 486 192 637 q 298 230 192 336 q 554 124 404 124 m 554 973 q 899 831 756 973 q 1041 486 1041 688 q 899 142 1041 285 q 554 0 756 0 q 210 142 353 0 q 68 486 68 285 q 210 831 68 688 q 554 973 353 973 m 575 1129 l 631 1079 q 643 1055 642 1069 q 634 1029 644 1040 q 608 1017 623 1017 q 584 1026 594 1017 l 553 1054 l 526 1027 q 501 1017 516 1017 q 476 1027 487 1017 q 466 1053 466 1038 q 476 1078 466 1067 l 526 1128 q 550 1138 536 1138 q 575 1129 564 1139 "},"Õ":{"ha":1109,"x_min":68,"x_max":1041,"o":"m 554 124 q 810 230 705 124 q 917 486 917 336 q 810 743 917 637 q 554 849 705 849 q 298 743 404 849 q 192 486 192 637 q 298 230 192 336 q 554 124 404 124 m 554 973 q 899 831 756 973 q 1041 486 1041 688 q 899 142 1041 285 q 554 0 756 0 q 210 142 353 0 q 68 486 68 285 q 210 831 68 688 q 554 973 353 973 m 481 1050 q 456 1040 471 1040 q 431 1051 441 1040 q 422 1076 421 1062 q 433 1101 422 1091 q 475 1128 454 1122 q 559 1109 518 1143 q 565 1105 562 1109 q 584 1094 578 1095 q 603 1099 592 1093 q 627 1118 611 1103 q 652 1128 637 1128 q 677 1118 667 1128 q 687 1093 687 1107 q 676 1067 687 1078 q 637 1037 654 1046 q 586 1023 613 1023 q 574 1023 580 1023 q 519 1051 549 1027 q 515 1055 517 1054 q 498 1061 504 1063 q 481 1050 492 1059 "},"Ö":{"ha":1109,"x_min":68,"x_max":1041,"o":"m 554 124 q 810 230 705 124 q 917 486 917 336 q 810 743 917 637 q 554 849 705 849 q 298 743 404 849 q 192 486 192 637 q 298 230 192 336 q 554 124 404 124 m 554 973 q 899 831 756 973 q 1041 486 1041 688 q 899 142 1041 285 q 554 0 756 0 q 210 142 353 0 q 68 486 68 285 q 210 831 68 688 q 554 973 353 973 m 650 1045 q 625 1035 640 1035 q 600 1045 610 1035 q 590 1070 590 1056 q 600 1095 590 1085 q 625 1106 610 1106 q 650 1095 640 1106 q 661 1070 661 1085 q 650 1045 661 1056 m 484 1035 q 458 1045 469 1035 q 448 1070 448 1056 q 458 1095 448 1085 q 484 1106 469 1106 q 509 1095 498 1106 q 519 1070 519 1085 q 509 1045 519 1056 q 484 1035 498 1035 "},"×":{"ha":472,"x_min":68,"x_max":404,"o":"m 298 332 l 236 394 l 174 332 q 130 313 155 313 q 86 332 104 313 q 68 375 68 349 q 86 419 68 401 l 149 481 l 86 544 q 68 588 68 562 q 86 631 68 614 q 130 650 104 650 q 174 631 155 650 l 236 569 l 298 631 q 342 650 317 650 q 386 631 368 650 q 404 588 404 614 q 386 544 404 562 l 323 481 l 386 419 q 404 375 404 401 q 386 332 404 349 q 342 313 368 313 q 298 332 317 313 "},"Ø":{"ha":1109,"x_min":68,"x_max":1041,"o":"m 917 486 q 850 695 917 602 l 346 190 q 554 124 439 124 q 810 230 705 124 q 917 486 917 336 m 192 486 q 258 278 192 372 l 763 783 q 554 849 669 849 q 298 743 404 849 q 192 486 192 637 m 1023 955 q 1041 911 1041 937 q 1023 867 1041 886 l 939 784 q 1041 486 1041 653 q 899 142 1041 285 q 554 0 756 0 q 257 102 388 0 l 174 18 q 130 0 155 0 q 86 18 104 0 q 68 62 68 36 q 86 106 68 87 l 170 189 q 68 486 68 320 q 210 831 68 688 q 554 973 353 973 q 852 871 721 973 l 935 955 q 979 973 954 973 q 1023 955 1004 973 "},"Ù":{"ha":879,"x_min":68,"x_max":811,"o":"m 465 1021 q 439 1031 450 1021 l 389 1081 q 379 1106 379 1091 q 389 1131 379 1120 q 414 1141 399 1141 q 439 1131 429 1141 l 490 1081 q 500 1056 500 1070 q 490 1031 500 1041 q 465 1021 479 1021 m 749 973 q 793 955 774 973 q 811 911 811 937 l 811 372 q 702 109 811 218 q 439 0 593 0 q 177 109 286 0 q 68 372 68 218 l 68 911 q 86 955 68 937 q 130 973 104 973 q 174 955 155 973 q 192 911 192 937 l 192 372 q 264 197 192 269 q 439 124 337 124 q 614 197 542 124 q 687 372 687 269 l 687 911 q 705 955 687 937 q 749 973 724 973 "},"Ú":{"ha":879,"x_min":68,"x_max":811,"o":"m 490 1081 l 439 1031 q 414 1021 429 1021 q 389 1031 399 1021 q 379 1056 379 1041 q 389 1081 379 1070 l 439 1131 q 465 1141 450 1141 q 490 1131 479 1141 q 500 1106 500 1120 q 490 1081 500 1091 m 749 973 q 793 955 774 973 q 811 911 811 937 l 811 372 q 702 109 811 218 q 439 0 593 0 q 177 109 286 0 q 68 372 68 218 l 68 911 q 86 955 68 937 q 130 973 104 973 q 174 955 155 973 q 192 911 192 937 l 192 372 q 264 197 192 269 q 439 124 337 124 q 614 197 542 124 q 687 372 687 269 l 687 911 q 705 955 687 937 q 749 973 724 973 "},"Û":{"ha":879,"x_min":68,"x_max":811,"o":"m 437 1057 l 411 1031 q 387 1021 401 1021 q 361 1031 372 1021 q 351 1056 351 1041 q 361 1081 351 1070 l 411 1131 q 435 1141 421 1141 q 460 1132 450 1141 l 516 1082 q 528 1058 527 1072 q 519 1032 528 1043 q 492 1021 509 1021 q 469 1029 479 1021 l 437 1057 m 749 973 q 793 955 774 973 q 811 911 811 937 l 811 372 q 702 109 811 218 q 439 0 593 0 q 177 109 286 0 q 68 372 68 218 l 68 911 q 86 955 68 937 q 130 973 104 973 q 174 955 155 973 q 192 911 192 937 l 192 372 q 264 197 192 269 q 439 124 337 124 q 614 197 542 124 q 687 372 687 269 l 687 911 q 705 955 687 937 q 749 973 724 973 "},"Ü":{"ha":879,"x_min":68,"x_max":811,"o":"m 535 1048 q 510 1038 525 1038 q 485 1048 496 1038 q 475 1074 475 1059 q 485 1099 475 1088 q 510 1109 496 1109 q 535 1099 525 1109 q 545 1074 545 1088 q 535 1048 545 1059 m 393 1048 q 369 1038 383 1038 q 344 1048 354 1038 q 333 1074 333 1059 q 344 1099 333 1088 q 369 1109 354 1109 q 393 1099 383 1109 q 404 1074 404 1088 q 393 1048 404 1059 m 749 973 q 793 955 774 973 q 811 911 811 937 l 811 372 q 702 109 811 218 q 439 0 593 0 q 177 109 286 0 q 68 372 68 218 l 68 911 q 86 955 68 937 q 130 973 104 973 q 174 955 155 973 q 192 911 192 937 l 192 372 q 264 197 192 269 q 439 124 337 124 q 614 197 542 124 q 687 372 687 269 l 687 911 q 705 955 687 937 q 749 973 724 973 "},"Ý":{"ha":940,"x_min":68,"x_max":872,"o":"m 520 1081 l 470 1031 q 445 1021 460 1021 q 420 1031 431 1021 q 410 1056 410 1041 q 420 1081 410 1070 l 470 1131 q 495 1141 480 1141 q 520 1131 510 1141 q 530 1106 530 1120 q 520 1081 530 1091 m 840 964 q 867 925 861 949 q 859 878 872 900 l 532 362 l 532 62 q 514 18 532 36 q 470 0 496 0 q 427 18 444 0 q 408 62 408 36 l 408 362 l 81 878 q 73 925 68 900 q 101 964 79 949 q 148 972 123 977 q 186 944 172 966 l 470 496 l 754 944 q 793 972 768 966 q 840 964 818 977 "},"Þ":{"ha":702,"x_min":68,"x_max":634,"o":"m 192 316 l 340 316 q 460 366 410 316 q 510 486 510 416 q 460 607 510 557 q 340 657 410 657 l 192 657 l 192 316 m 192 781 l 340 781 q 548 694 461 781 q 634 486 634 608 q 548 279 634 365 q 340 193 461 193 l 192 193 l 192 62 q 174 18 192 36 q 130 0 155 0 q 86 18 104 0 q 68 62 68 36 l 68 911 q 86 955 68 937 q 130 973 104 973 q 174 955 155 973 q 192 911 192 937 l 192 781 "},"ß":{"ha":772,"x_min":68,"x_max":705,"o":"m 705 699 q 604 486 705 569 q 705 274 705 404 q 625 81 705 161 q 431 0 544 0 l 342 0 q 298 18 317 0 q 280 62 280 36 q 298 106 280 87 q 342 124 317 124 l 431 124 q 537 168 493 124 q 581 274 581 212 q 537 380 581 336 q 431 425 493 425 l 342 425 q 298 443 317 425 q 280 486 280 461 q 298 530 280 512 q 342 549 317 549 l 431 549 q 537 593 493 549 q 581 699 581 637 q 537 805 581 761 q 431 849 493 849 l 342 849 q 236 805 280 849 q 192 699 192 761 l 192 62 q 174 18 192 36 q 130 0 155 0 q 86 18 104 0 q 68 62 68 36 l 68 699 q 149 892 68 812 q 342 973 229 973 l 431 973 q 625 892 544 973 q 705 699 705 812 "},"à":{"ha":1013,"x_min":68,"x_max":945,"o":"m 353 407 l 659 407 l 506 757 l 353 407 m 563 936 l 935 87 q 935 39 945 64 q 903 5 926 16 q 878 0 890 0 q 821 37 838 0 l 713 283 l 299 283 l 191 37 q 157 5 181 14 q 110 5 134 -5 q 77 39 86 16 q 78 87 68 64 l 450 936 q 506 973 466 973 q 563 936 547 973 m 463 1128 q 488 1139 474 1139 q 513 1128 503 1139 l 564 1078 q 574 1053 574 1067 q 564 1028 574 1038 q 538 1017 553 1017 q 513 1028 524 1017 l 463 1078 q 453 1103 453 1088 q 463 1128 453 1118 "},"á":{"ha":1013,"x_min":68,"x_max":945,"o":"m 353 407 l 659 407 l 506 757 l 353 407 m 563 936 l 935 87 q 935 39 945 64 q 903 5 926 16 q 878 0 890 0 q 821 37 838 0 l 713 283 l 299 283 l 191 37 q 157 5 181 14 q 110 5 134 -5 q 77 39 86 16 q 78 87 68 64 l 450 936 q 506 973 466 973 q 563 936 547 973 m 463 1078 l 513 1128 q 538 1139 524 1139 q 564 1128 553 1139 q 574 1103 574 1118 q 564 1078 574 1088 l 513 1028 q 488 1017 503 1017 q 463 1028 474 1017 q 453 1053 453 1038 q 463 1078 453 1067 "},"â":{"ha":1013,"x_min":68,"x_max":945,"o":"m 353 407 l 659 407 l 506 757 l 353 407 m 563 936 l 935 87 q 935 39 945 64 q 903 5 926 16 q 878 0 890 0 q 821 37 838 0 l 713 283 l 299 283 l 191 37 q 157 5 181 14 q 110 5 134 -5 q 77 39 86 16 q 78 87 68 64 l 450 936 q 506 973 466 973 q 563 936 547 973 m 527 1129 l 583 1080 q 595 1055 594 1069 q 586 1029 595 1040 q 559 1017 575 1017 q 536 1027 546 1017 l 505 1055 l 478 1028 q 453 1017 468 1017 q 428 1028 439 1017 q 418 1053 418 1038 q 428 1078 418 1067 l 478 1128 q 502 1139 488 1138 q 527 1129 516 1139 "},"ã":{"ha":1013,"x_min":68,"x_max":945,"o":"m 353 407 l 659 407 l 506 757 l 353 407 m 878 0 q 821 37 838 0 l 713 283 l 299 283 l 191 37 q 157 5 181 14 q 110 5 134 -5 q 77 39 86 16 q 78 87 68 64 l 450 936 q 506 973 466 973 q 563 936 547 973 l 935 87 q 935 39 945 64 q 903 5 926 16 q 878 0 890 0 m 587 1119 q 612 1128 598 1129 q 637 1118 627 1128 q 648 1093 648 1107 q 637 1068 647 1078 q 598 1037 614 1046 q 547 1023 573 1023 q 534 1024 541 1023 q 480 1051 509 1027 q 476 1055 477 1053 q 459 1062 465 1064 q 442 1050 452 1059 q 416 1040 431 1040 q 392 1051 402 1040 q 382 1076 382 1062 q 393 1101 383 1091 q 436 1128 415 1122 q 520 1110 479 1143 q 526 1105 522 1109 q 545 1094 539 1095 q 564 1099 553 1093 q 587 1119 572 1103 "},"ä":{"ha":1013,"x_min":68,"x_max":945,"o":"m 552 1096 q 577 1106 562 1106 q 602 1096 591 1106 q 612 1071 612 1085 q 602 1046 612 1056 q 577 1035 591 1035 q 552 1046 562 1035 q 542 1071 542 1056 q 552 1096 542 1085 m 435 1106 q 460 1096 450 1106 q 471 1071 471 1085 q 460 1046 471 1056 q 435 1035 450 1035 q 410 1046 420 1035 q 400 1071 400 1056 q 410 1096 400 1085 q 435 1106 420 1106 m 353 407 l 659 407 l 506 757 l 353 407 m 903 5 q 878 0 890 0 q 821 37 838 0 l 713 283 l 299 283 l 191 37 q 157 5 181 14 q 110 5 134 -5 q 77 39 86 16 q 78 87 68 64 l 450 936 q 506 973 466 973 q 563 936 547 973 l 935 87 q 935 39 945 64 q 903 5 926 16 "},"å":{"ha":1013,"x_min":68,"x_max":945,"o":"m 353 407 l 659 407 l 506 757 l 353 407 m 506 1075 q 477 1063 489 1075 q 465 1033 465 1050 q 477 1003 465 1016 q 506 991 489 991 q 536 1003 524 991 q 548 1033 548 1016 q 536 1063 548 1050 q 506 1075 524 1075 m 570 920 l 935 87 q 935 39 945 64 q 903 5 926 16 q 878 0 890 0 q 821 37 838 0 l 713 283 l 299 283 l 191 37 q 157 5 181 14 q 110 5 134 -5 q 77 39 86 16 q 78 87 68 64 l 442 920 q 376 1033 376 957 q 414 1125 376 1087 q 506 1164 452 1164 q 598 1125 560 1164 q 637 1033 637 1087 q 570 920 637 957 "},"æ":{"ha":1202,"x_min":68,"x_max":1135,"o":"m 353 407 l 629 407 l 502 747 l 353 407 m 1072 849 l 595 849 l 709 549 l 1072 549 q 1116 530 1098 549 q 1135 486 1135 512 q 1116 443 1135 461 q 1072 425 1098 425 l 755 425 l 867 124 l 1072 124 q 1116 106 1098 124 q 1135 62 1135 87 q 1116 18 1135 37 q 1072 0 1098 0 l 825 0 q 767 40 782 0 l 675 283 l 299 283 l 191 37 q 135 0 175 0 q 110 5 122 0 q 77 39 86 16 q 78 87 68 63 l 201 369 q 201 370 201 369 q 201 370 201 370 l 449 935 q 454 944 451 940 l 454 945 q 456 948 455 946 q 456 948 456 948 q 459 951 458 949 q 460 952 459 951 q 463 955 461 954 l 463 956 q 465 958 464 956 q 466 958 466 958 q 469 961 468 960 q 469 961 469 961 l 469 961 q 473 963 471 962 l 473 964 q 473 964 474 964 q 473 964 473 964 l 473 964 q 477 966 475 965 q 481 968 479 966 q 481 968 481 968 q 486 970 484 968 q 489 970 487 970 q 490 971 490 971 q 494 972 492 972 q 494 972 494 972 l 494 972 q 498 972 496 972 q 499 972 499 972 q 503 973 501 973 l 504 973 q 506 973 505 973 l 1072 973 q 1116 955 1098 973 q 1135 911 1135 937 q 1116 867 1135 886 q 1072 849 1098 849 "},"ç":{"ha":985,"x_min":68,"x_max":917,"o":"m 811 736 q 554 842 705 842 q 298 736 404 842 q 192 480 192 631 q 298 224 192 330 q 554 117 404 117 q 811 224 705 117 q 854 241 829 241 q 899 224 880 241 q 917 180 917 205 q 899 136 917 154 q 581 -5 766 4 l 581 -33 q 563 -77 581 -59 q 519 -95 545 -95 q 475 -77 493 -95 q 457 -33 457 -59 l 457 3 q 210 136 314 32 q 68 480 68 279 q 210 824 68 682 q 554 966 353 966 q 899 824 756 966 q 917 781 917 806 q 899 736 917 755 q 854 718 880 718 q 811 736 829 718 "},"è":{"ha":844,"x_min":68,"x_max":776,"o":"m 713 849 l 192 849 l 192 549 l 572 549 q 616 530 597 549 q 634 486 634 512 q 616 443 634 461 q 572 425 597 425 l 192 425 l 192 124 l 713 124 q 758 106 739 124 q 776 62 776 87 q 758 18 776 36 q 713 0 739 0 l 130 0 q 86 18 104 0 q 68 62 68 36 l 68 911 q 86 955 68 937 q 130 973 104 973 l 713 973 q 758 955 739 973 q 776 911 776 937 q 758 867 776 886 q 713 849 739 849 m 372 1128 q 397 1138 382 1138 q 422 1128 411 1138 l 472 1078 q 482 1053 482 1067 q 472 1027 482 1038 q 447 1017 461 1017 q 422 1027 432 1017 l 372 1078 q 361 1103 361 1088 q 372 1128 361 1118 "},"é":{"ha":844,"x_min":68,"x_max":776,"o":"m 713 849 l 192 849 l 192 549 l 572 549 q 616 530 597 549 q 634 486 634 512 q 616 443 634 461 q 572 425 597 425 l 192 425 l 192 124 l 713 124 q 758 106 739 124 q 776 62 776 87 q 758 18 776 36 q 713 0 739 0 l 130 0 q 86 18 104 0 q 68 62 68 36 l 68 911 q 86 955 68 937 q 130 973 104 973 l 713 973 q 758 955 739 973 q 776 911 776 937 q 758 867 776 886 q 713 849 739 849 m 372 1027 q 361 1053 361 1038 q 372 1078 361 1067 l 422 1128 q 447 1138 432 1138 q 472 1128 461 1138 q 482 1103 482 1118 q 472 1078 482 1088 l 422 1027 q 397 1017 411 1017 q 372 1027 382 1017 "},"ê":{"ha":844,"x_min":68,"x_max":776,"o":"m 713 849 l 192 849 l 192 549 l 572 549 q 616 530 597 549 q 634 486 634 512 q 616 443 634 461 q 572 425 597 425 l 192 425 l 192 124 l 713 124 q 758 106 739 124 q 776 62 776 87 q 758 18 776 36 q 713 0 739 0 l 130 0 q 86 18 104 0 q 68 62 68 36 l 68 911 q 86 955 68 937 q 130 973 104 973 l 713 973 q 758 955 739 973 q 776 911 776 937 q 758 867 776 886 q 713 849 739 849 m 442 1129 l 498 1079 q 510 1055 509 1069 q 501 1029 511 1040 q 475 1017 490 1017 q 451 1026 461 1017 l 420 1054 l 393 1027 q 369 1017 383 1017 q 344 1027 354 1017 q 333 1053 333 1038 q 344 1078 333 1067 l 393 1128 q 418 1138 404 1138 q 442 1129 432 1139 "},"ë":{"ha":844,"x_min":68,"x_max":776,"o":"m 713 849 l 192 849 l 192 549 l 572 549 q 616 530 597 549 q 634 486 634 512 q 616 443 634 461 q 572 425 597 425 l 192 425 l 192 124 l 713 124 q 758 106 739 124 q 776 62 776 87 q 758 18 776 36 q 713 0 739 0 l 130 0 q 86 18 104 0 q 68 62 68 36 l 68 911 q 86 955 68 937 q 130 973 104 973 l 713 973 q 758 955 739 973 q 776 911 776 937 q 758 867 776 886 q 713 849 739 849 m 467 1095 q 492 1106 478 1106 q 517 1095 507 1106 q 528 1070 528 1085 q 517 1045 528 1056 q 492 1035 507 1035 q 467 1045 477 1035 q 457 1070 457 1056 q 467 1095 457 1085 m 326 1095 q 351 1106 336 1106 q 376 1095 366 1106 q 387 1070 387 1085 q 376 1045 387 1056 q 351 1035 366 1035 q 326 1045 336 1035 q 315 1070 315 1056 q 326 1095 315 1085 "},"ì":{"ha":260,"x_min":68,"x_max":192,"o":"m 130 973 q 174 955 155 973 q 192 911 192 937 l 192 62 q 174 18 192 36 q 130 0 155 0 q 86 18 104 0 q 68 62 68 36 l 68 911 q 86 955 68 937 q 130 973 104 973 m 130 1027 l 80 1078 q 69 1103 69 1088 q 80 1128 69 1118 q 104 1138 90 1138 q 130 1128 119 1138 l 180 1078 q 190 1053 190 1067 q 180 1027 190 1038 q 155 1017 170 1017 q 130 1027 140 1017 "},"í":{"ha":260,"x_min":68,"x_max":192,"o":"m 130 973 q 174 955 155 973 q 192 911 192 937 l 192 62 q 174 18 192 36 q 130 0 155 0 q 86 18 104 0 q 68 62 68 36 l 68 911 q 86 955 68 937 q 130 973 104 973 m 80 1027 q 69 1053 69 1038 q 80 1078 69 1067 l 130 1128 q 155 1138 140 1138 q 180 1128 170 1138 q 190 1103 190 1118 q 180 1078 190 1088 l 130 1027 q 104 1017 119 1017 q 80 1027 90 1017 "},"î":{"ha":313,"x_min":68,"x_max":245,"o":"m 156 973 q 200 955 182 973 q 218 911 218 937 l 218 62 q 200 18 218 36 q 156 0 182 0 q 113 18 131 0 q 94 62 94 36 l 94 911 q 113 955 94 937 q 156 973 131 973 m 177 1129 l 233 1079 q 245 1055 244 1069 q 236 1029 245 1040 q 210 1017 225 1017 q 186 1026 196 1017 l 155 1054 l 128 1027 q 103 1017 118 1017 q 78 1027 89 1017 q 68 1053 68 1038 q 78 1078 68 1067 l 128 1128 q 152 1138 138 1138 q 177 1129 166 1139 "},"ï":{"ha":348,"x_min":68,"x_max":280,"o":"m 174 973 q 218 955 199 973 q 236 911 236 937 l 236 62 q 218 18 236 36 q 174 0 199 0 q 130 18 149 0 q 112 62 112 36 l 112 911 q 130 955 112 937 q 174 973 149 973 m 245 1106 q 270 1095 260 1106 q 280 1070 280 1085 q 270 1045 280 1056 q 245 1035 260 1035 q 220 1045 230 1035 q 210 1070 210 1056 q 220 1095 210 1085 q 245 1106 230 1106 m 138 1070 q 128 1045 138 1056 q 103 1035 118 1035 q 78 1045 89 1035 q 68 1070 68 1056 q 78 1095 68 1085 q 103 1106 89 1106 q 128 1095 118 1106 q 138 1070 138 1085 "},"ð":{"ha":985,"x_min":68,"x_max":917,"o":"m 280 124 l 431 124 q 687 230 581 124 q 793 486 793 336 q 687 743 793 637 q 431 849 581 849 l 280 849 l 280 549 l 395 549 q 439 530 420 549 q 457 486 457 512 q 439 443 457 461 q 395 425 420 425 l 280 425 l 280 124 m 218 973 l 431 973 q 774 831 632 973 q 917 486 917 688 q 774 142 917 285 q 431 0 632 0 l 218 0 q 174 18 193 0 q 156 62 156 36 l 156 425 l 130 425 q 86 443 104 425 q 68 486 68 461 q 86 530 68 512 q 130 549 104 549 l 156 549 l 156 911 q 174 955 156 937 q 218 973 193 973 "},"ñ":{"ha":914,"x_min":68,"x_max":846,"o":"m 384 1050 q 359 1040 374 1040 q 334 1051 344 1040 q 325 1076 324 1062 q 336 1101 325 1091 q 378 1128 357 1122 q 463 1110 420 1143 q 468 1105 464 1108 q 486 1094 481 1095 q 505 1099 495 1093 q 530 1118 513 1103 q 555 1128 540 1128 q 580 1118 570 1128 q 589 1093 590 1107 q 579 1067 589 1078 q 541 1037 557 1046 q 489 1023 515 1023 q 476 1023 482 1023 q 422 1051 451 1027 q 418 1055 419 1054 q 401 1061 407 1063 q 384 1050 395 1059 m 785 973 q 828 955 810 973 q 846 911 846 937 l 846 62 q 804 3 846 18 q 785 0 795 0 q 735 24 754 0 l 192 730 l 192 62 q 174 18 192 36 q 130 0 155 0 q 86 18 104 0 q 68 62 68 36 l 68 911 q 110 970 68 956 q 179 949 152 984 l 722 243 l 722 911 q 741 955 722 937 q 785 973 759 973 "},"ò":{"ha":1109,"x_min":68,"x_max":1041,"o":"m 554 124 q 810 230 705 124 q 917 486 917 336 q 810 743 917 637 q 554 849 705 849 q 298 743 404 849 q 192 486 192 637 q 298 230 192 336 q 554 124 404 124 m 554 973 q 899 831 756 973 q 1041 486 1041 688 q 899 142 1041 285 q 554 0 756 0 q 210 142 353 0 q 68 486 68 285 q 210 831 68 688 q 554 973 353 973 m 554 1128 l 604 1078 q 615 1053 615 1067 q 604 1027 615 1038 q 579 1017 594 1017 q 554 1027 565 1017 l 505 1078 q 494 1103 494 1088 q 505 1128 494 1118 q 530 1138 515 1138 q 554 1128 544 1138 "},"ó":{"ha":1109,"x_min":68,"x_max":1041,"o":"m 554 124 q 810 230 705 124 q 917 486 917 336 q 810 743 917 637 q 554 849 705 849 q 298 743 404 849 q 192 486 192 637 q 298 230 192 336 q 554 124 404 124 m 554 973 q 899 831 756 973 q 1041 486 1041 688 q 899 142 1041 285 q 554 0 756 0 q 210 142 353 0 q 68 486 68 285 q 210 831 68 688 q 554 973 353 973 m 530 1017 q 505 1027 515 1017 q 494 1053 494 1038 q 505 1078 494 1067 l 554 1128 q 579 1138 565 1138 q 604 1128 594 1138 q 615 1103 615 1118 q 604 1078 615 1088 l 554 1027 q 530 1017 544 1017 "},"ô":{"ha":1109,"x_min":68,"x_max":1041,"o":"m 554 124 q 810 230 705 124 q 917 486 917 336 q 810 743 917 637 q 554 849 705 849 q 298 743 404 849 q 192 486 192 637 q 298 230 192 336 q 554 124 404 124 m 554 973 q 899 831 756 973 q 1041 486 1041 688 q 899 142 1041 285 q 554 0 756 0 q 210 142 353 0 q 68 486 68 285 q 210 831 68 688 q 554 973 353 973 m 575 1129 l 631 1079 q 643 1055 642 1069 q 634 1029 644 1040 q 608 1017 623 1017 q 584 1026 594 1017 l 553 1054 l 526 1027 q 501 1017 516 1017 q 476 1027 487 1017 q 466 1053 466 1038 q 476 1078 466 1067 l 526 1128 q 550 1138 536 1138 q 575 1129 564 1139 "},"õ":{"ha":1109,"x_min":68,"x_max":1041,"o":"m 554 124 q 810 230 705 124 q 917 486 917 336 q 810 743 917 637 q 554 849 705 849 q 298 743 404 849 q 192 486 192 637 q 298 230 192 336 q 554 124 404 124 m 554 973 q 899 831 756 973 q 1041 486 1041 688 q 899 142 1041 285 q 554 0 756 0 q 210 142 353 0 q 68 486 68 285 q 210 831 68 688 q 554 973 353 973 m 481 1050 q 456 1040 471 1040 q 431 1051 441 1040 q 422 1076 421 1062 q 433 1101 422 1091 q 475 1128 454 1122 q 559 1109 518 1143 q 565 1105 562 1109 q 584 1094 578 1095 q 603 1099 592 1093 q 627 1118 611 1103 q 652 1128 637 1128 q 677 1118 667 1128 q 687 1093 687 1107 q 676 1067 687 1078 q 637 1037 654 1046 q 586 1023 613 1023 q 574 1023 580 1023 q 519 1051 549 1027 q 515 1055 517 1054 q 498 1061 504 1063 q 481 1050 492 1059 "},"ö":{"ha":1109,"x_min":68,"x_max":1041,"o":"m 554 124 q 810 230 705 124 q 917 486 917 336 q 810 743 917 637 q 554 849 705 849 q 298 743 404 849 q 192 486 192 637 q 298 230 192 336 q 554 124 404 124 m 554 973 q 899 831 756 973 q 1041 486 1041 688 q 899 142 1041 285 q 554 0 756 0 q 210 142 353 0 q 68 486 68 285 q 210 831 68 688 q 554 973 353 973 m 650 1045 q 625 1035 640 1035 q 600 1045 610 1035 q 590 1070 590 1056 q 600 1095 590 1085 q 625 1106 610 1106 q 650 1095 640 1106 q 661 1070 661 1085 q 650 1045 661 1056 m 484 1035 q 458 1045 469 1035 q 448 1070 448 1056 q 458 1095 448 1085 q 484 1106 469 1106 q 509 1095 498 1106 q 519 1070 519 1085 q 509 1045 519 1056 q 484 1035 498 1035 "},"÷":{"ha":560,"x_min":68,"x_max":492,"o":"m 324 264 q 280 246 306 246 q 237 264 254 246 q 218 308 218 282 q 237 352 218 334 q 280 370 254 370 q 324 352 306 370 q 342 308 342 334 q 324 264 342 283 m 324 618 q 280 600 306 600 q 237 618 254 600 q 218 662 218 636 q 237 706 218 688 q 280 724 254 724 q 324 706 306 724 q 342 662 342 688 q 324 618 342 636 m 492 485 q 474 441 492 459 q 431 423 456 423 l 130 423 q 86 441 104 423 q 68 485 68 459 q 86 529 68 511 q 130 547 104 547 l 431 547 q 474 529 456 547 q 492 485 492 511 "},"ø":{"ha":1109,"x_min":68,"x_max":1041,"o":"m 917 486 q 850 695 917 602 l 346 190 q 554 124 439 124 q 810 230 705 124 q 917 486 917 336 m 192 486 q 258 278 192 372 l 763 783 q 554 849 669 849 q 298 743 404 849 q 192 486 192 637 m 1023 955 q 1041 911 1041 937 q 1023 867 1041 886 l 939 784 q 1041 486 1041 653 q 899 142 1041 285 q 554 0 756 0 q 257 102 388 0 l 174 18 q 130 0 155 0 q 86 18 104 0 q 68 62 68 36 q 86 106 68 87 l 170 189 q 68 486 68 320 q 210 831 68 688 q 554 973 353 973 q 852 871 721 973 l 935 955 q 979 973 954 973 q 1023 955 1004 973 "},"ù":{"ha":879,"x_min":68,"x_max":811,"o":"m 465 1021 q 439 1031 450 1021 l 389 1081 q 379 1106 379 1091 q 389 1131 379 1120 q 414 1141 399 1141 q 439 1131 429 1141 l 490 1081 q 500 1056 500 1070 q 490 1031 500 1041 q 465 1021 479 1021 m 749 973 q 793 955 774 973 q 811 911 811 937 l 811 372 q 702 109 811 218 q 439 0 593 0 q 177 109 286 0 q 68 372 68 218 l 68 911 q 86 955 68 937 q 130 973 104 973 q 174 955 155 973 q 192 911 192 937 l 192 372 q 264 197 192 269 q 439 124 337 124 q 614 197 542 124 q 687 372 687 269 l 687 911 q 705 955 687 937 q 749 973 724 973 "},"ú":{"ha":879,"x_min":68,"x_max":811,"o":"m 490 1081 l 439 1031 q 414 1021 429 1021 q 389 1031 399 1021 q 379 1056 379 1041 q 389 1081 379 1070 l 439 1131 q 465 1141 450 1141 q 490 1131 479 1141 q 500 1106 500 1120 q 490 1081 500 1091 m 749 973 q 793 955 774 973 q 811 911 811 937 l 811 372 q 702 109 811 218 q 439 0 593 0 q 177 109 286 0 q 68 372 68 218 l 68 911 q 86 955 68 937 q 130 973 104 973 q 174 955 155 973 q 192 911 192 937 l 192 372 q 264 197 192 269 q 439 124 337 124 q 614 197 542 124 q 687 372 687 269 l 687 911 q 705 955 687 937 q 749 973 724 973 "},"û":{"ha":879,"x_min":68,"x_max":811,"o":"m 437 1057 l 411 1031 q 387 1021 401 1021 q 361 1031 372 1021 q 351 1056 351 1041 q 361 1081 351 1070 l 411 1131 q 435 1141 421 1141 q 460 1132 450 1141 l 516 1082 q 528 1058 527 1072 q 519 1032 528 1043 q 492 1021 509 1021 q 469 1029 479 1021 l 437 1057 m 749 973 q 793 955 774 973 q 811 911 811 937 l 811 372 q 702 109 811 218 q 439 0 593 0 q 177 109 286 0 q 68 372 68 218 l 68 911 q 86 955 68 937 q 130 973 104 973 q 174 955 155 973 q 192 911 192 937 l 192 372 q 264 197 192 269 q 439 124 337 124 q 614 197 542 124 q 687 372 687 269 l 687 911 q 705 955 687 937 q 749 973 724 973 "},"ü":{"ha":879,"x_min":68,"x_max":811,"o":"m 535 1048 q 510 1038 525 1038 q 485 1048 496 1038 q 475 1074 475 1059 q 485 1099 475 1088 q 510 1109 496 1109 q 535 1099 525 1109 q 545 1074 545 1088 q 535 1048 545 1059 m 393 1048 q 369 1038 383 1038 q 344 1048 354 1038 q 333 1074 333 1059 q 344 1099 333 1088 q 369 1109 354 1109 q 393 1099 383 1109 q 404 1074 404 1088 q 393 1048 404 1059 m 749 973 q 793 955 774 973 q 811 911 811 937 l 811 372 q 702 109 811 218 q 439 0 593 0 q 177 109 286 0 q 68 372 68 218 l 68 911 q 86 955 68 937 q 130 973 104 973 q 174 955 155 973 q 192 911 192 937 l 192 372 q 264 197 192 269 q 439 124 337 124 q 614 197 542 124 q 687 372 687 269 l 687 911 q 705 955 687 937 q 749 973 724 973 "},"ý":{"ha":940,"x_min":68,"x_max":872,"o":"m 520 1081 l 470 1031 q 445 1021 460 1021 q 420 1031 431 1021 q 410 1056 410 1041 q 420 1081 410 1070 l 470 1131 q 495 1141 480 1141 q 520 1131 510 1141 q 530 1106 530 1120 q 520 1081 530 1091 m 840 964 q 867 925 861 949 q 859 878 872 900 l 532 362 l 532 62 q 514 18 532 36 q 470 0 496 0 q 427 18 444 0 q 408 62 408 36 l 408 362 l 81 878 q 73 925 68 900 q 101 964 79 949 q 148 972 123 977 q 186 944 172 966 l 470 496 l 754 944 q 793 972 768 966 q 840 964 818 977 "},"þ":{"ha":702,"x_min":68,"x_max":634,"o":"m 192 316 l 340 316 q 460 366 410 316 q 510 486 510 416 q 460 607 510 557 q 340 657 410 657 l 192 657 l 192 316 m 192 781 l 340 781 q 548 694 461 781 q 634 486 634 608 q 548 279 634 365 q 340 193 461 193 l 192 193 l 192 62 q 174 18 192 36 q 130 0 155 0 q 86 18 104 0 q 68 62 68 36 l 68 911 q 86 955 68 937 q 130 973 104 973 q 174 955 155 973 q 192 911 192 937 l 192 781 "},"ÿ":{"ha":940,"x_min":68,"x_max":872,"o":"m 566 1048 q 541 1038 555 1038 q 516 1048 526 1038 q 505 1074 505 1059 q 516 1099 505 1088 q 541 1109 526 1109 q 566 1099 555 1109 q 576 1074 576 1088 q 566 1048 576 1059 m 425 1048 q 399 1038 414 1038 q 374 1048 385 1038 q 364 1074 364 1059 q 374 1099 364 1088 q 399 1109 385 1109 q 425 1099 414 1109 q 435 1074 435 1088 q 425 1048 435 1059 m 840 964 q 867 925 861 949 q 859 878 872 900 l 532 362 l 532 62 q 514 18 532 36 q 470 0 496 0 q 427 18 444 0 q 408 62 408 36 l 408 362 l 81 878 q 73 925 68 900 q 101 964 79 949 q 148 972 123 977 q 186 944 172 966 l 470 496 l 754 944 q 793 972 768 966 q 840 964 818 977 "},"ı":{"ha":260,"x_min":68,"x_max":192,"o":"m 130 0 q 86 18 104 0 q 68 62 68 36 l 68 911 q 86 955 68 937 q 130 973 104 973 q 174 955 155 973 q 192 911 192 937 l 192 62 q 174 18 192 36 q 130 0 155 0 "},"‘":{"ha":224,"x_min":68,"x_max":156,"o":"m 156 926 l 156 854 q 143 823 156 836 q 112 810 130 810 q 81 823 94 810 q 68 854 68 836 l 68 926 q 81 957 68 944 q 112 970 94 970 q 143 957 130 970 q 156 926 156 944 "},"’":{"ha":224,"x_min":68,"x_max":156,"o":"m 156 926 l 156 854 q 143 823 156 836 q 112 810 130 810 q 81 823 94 810 q 68 854 68 836 l 68 926 q 81 957 68 944 q 112 970 94 970 q 143 957 130 970 q 156 926 156 944 "},"“":{"ha":348,"x_min":68,"x_max":280,"o":"m 156 926 l 156 854 q 143 823 156 836 q 112 810 130 810 q 81 823 94 810 q 68 854 68 836 l 68 926 q 81 957 68 944 q 112 970 94 970 q 143 957 130 970 q 156 926 156 944 m 192 854 l 192 926 q 205 957 192 944 q 236 970 218 970 q 267 957 254 970 q 280 926 280 944 l 280 854 q 267 823 280 836 q 236 810 254 810 q 205 823 218 810 q 192 854 192 836 "},"”":{"ha":348,"x_min":68,"x_max":280,"o":"m 156 926 l 156 854 q 143 823 156 836 q 112 810 130 810 q 81 823 94 810 q 68 854 68 836 l 68 926 q 81 957 68 944 q 112 970 94 970 q 143 957 130 970 q 156 926 156 944 m 192 854 l 192 926 q 205 957 192 944 q 236 970 218 970 q 267 957 254 970 q 280 926 280 944 l 280 854 q 267 823 280 836 q 236 810 254 810 q 205 823 218 810 q 192 854 192 836 "},"‹":{"ha":437,"x_min":68,"x_max":370,"o":"m 353 684 q 368 640 370 665 q 348 597 367 614 l 222 484 l 348 370 q 368 328 367 353 q 353 283 370 302 q 307 262 334 262 q 265 278 283 262 l 88 437 q 68 484 68 456 q 88 530 68 511 l 265 689 q 310 705 284 706 q 353 684 336 703 "},"›":{"ha":438,"x_min":68,"x_max":370,"o":"m 85 684 q 128 705 102 703 q 172 689 153 706 l 349 530 q 370 484 370 511 q 349 437 370 456 l 172 278 q 131 262 155 262 q 85 283 104 262 q 69 328 68 302 q 90 370 71 353 l 216 484 l 90 597 q 69 640 71 614 q 85 684 68 665 "},"€":{"ha":755,"x_min":68,"x_max":687,"o":"m 625 849 q 427 790 517 849 q 295 637 339 732 l 519 637 q 563 618 545 637 q 581 575 581 601 q 563 531 581 549 q 519 513 545 513 l 263 513 q 262 486 262 500 q 268 425 262 455 l 519 425 q 563 406 545 425 q 581 363 581 389 q 563 319 581 337 q 519 301 545 301 l 314 301 q 444 173 362 220 q 625 124 528 124 q 669 106 651 124 q 687 62 687 87 q 669 18 687 36 q 625 0 651 0 q 281 142 424 0 q 175 301 212 212 l 130 301 q 86 319 104 301 q 68 363 68 337 q 86 406 68 389 q 130 425 104 425 l 142 425 q 138 486 138 456 q 139 513 138 499 l 130 513 q 86 531 104 513 q 68 575 68 549 q 86 618 68 601 q 130 637 104 637 l 162 637 q 281 831 198 747 q 625 973 424 973 q 669 955 651 973 q 687 911 687 937 q 669 867 687 886 q 625 849 651 849 "},"−":{"ha":560,"x_min":68,"x_max":492,"o":"m 492 485 q 474 441 492 459 q 431 423 456 423 l 130 423 q 86 441 104 423 q 68 485 68 459 q 86 529 68 511 q 130 547 104 547 l 431 547 q 474 529 456 547 q 492 485 492 511 "},"":{"ha":728,"x_min":0,"x_max":0,"o":""},"":{"ha":733,"x_min":0,"x_max":0,"o":""}}}
